<?xml version="1.0" encoding="utf-8"?>
<!-- Generator: Adobe Illustrator 25.2.3, SVG Export Plug-In . SVG Version: 6.00 Build 0)  -->
<svg version="1.1" id="Layer_1" xmlns="http://www.w3.org/2000/svg" xmlns:xlink="http://www.w3.org/1999/xlink" x="0px" y="0px"
	 width="203px" height="152px" viewBox="0 0 203 152" style="enable-background:new 0 0 203 152;" xml:space="preserve">
<style type="text/css">
	.st0{fill:#FFFFFF;stroke:#A0A0A0;stroke-width:5;stroke-miterlimit:10;}
	.st1{fill:#A0A0A0;}
	.st2{fill:none;stroke:#A0A0A0;stroke-width:5;stroke-miterlimit:10;}
</style>
<circle class="st0" cx="101.5" cy="76.5" r="45"/>
<g>
	<path class="st1" d="M96.9,92.5h-3.6c-0.4,0-0.7-0.1-1-0.3c-0.3-0.2-0.5-0.5-0.6-0.8l-2.8-7.3H75l-2.8,7.3
		c-0.1,0.3-0.3,0.5-0.6,0.8c-0.3,0.2-0.6,0.3-1,0.3H67l12.6-31.6h4.7L96.9,92.5z M87.6,80.7l-4.7-12.2c-0.3-0.8-0.7-1.9-1-3.2
		c-0.2,0.6-0.3,1.2-0.5,1.8c-0.2,0.5-0.3,1-0.5,1.5l-4.7,12.2h11.4V80.7z"/>
	<path class="st1" d="M110.4,60.9c2,0,3.8,0.2,5.3,0.7s2.7,1.1,3.7,2c1,0.9,1.7,1.9,2.2,3.1c0.5,1.2,0.7,2.6,0.7,4
		c0,1.5-0.3,2.8-0.8,4.1c-0.5,1.2-1.3,2.3-2.3,3.2s-2.2,1.6-3.7,2.1s-3.2,0.7-5.1,0.7h-4.9v11.7h-4.7V60.9H110.4z M110.4,77.2
		c1.2,0,2.2-0.2,3.1-0.5c0.9-0.3,1.7-0.7,2.3-1.3c0.6-0.6,1.1-1.2,1.4-2s0.5-1.7,0.5-2.6c0-1.9-0.6-3.4-1.8-4.5
		c-1.2-1.1-3-1.7-5.4-1.7h-5v12.6C105.5,77.2,110.4,77.2,110.4,77.2z"/>
	<path class="st1" d="M132.2,92.5h-4.7V60.9h4.7V92.5z"/>
</g>
<line class="st2" x1="139.8" y1="99" x2="202.5" y2="99"/>
<line class="st2" x1="62.7" y1="53" x2="0.5" y2="53"/>
<path class="st2" d="M200.5,111.5"/>
<path class="st2" d="M200.5,86.5"/>
<path class="st2" d="M2.5,65.5"/>
</svg>
