<?xml version="1.0" encoding="utf-8"?>
<!-- Generator: Adobe Illustrator 25.2.3, SVG Export Plug-In . SVG Version: 6.00 Build 0)  -->
<svg version="1.1" id="Layer_1" xmlns="http://www.w3.org/2000/svg" xmlns:xlink="http://www.w3.org/1999/xlink" x="0px" y="0px"
	 width="208px" height="117px" viewBox="0 0 208 117" style="enable-background:new 0 0 208 117;" xml:space="preserve">
<style type="text/css">
	.st0{fill:#FFFFFF;stroke:#D8D8D8;stroke-width:5;stroke-miterlimit:10;}
	.st1{fill:#D8D8D8;}
	.st2{fill:none;stroke:#D8D8D8;stroke-width:5;stroke-miterlimit:10;}
</style>
<circle class="st0" cx="104" cy="59" r="45"/>
<g>
	<path class="st1" d="M99.4,75h-3.6c-0.4,0-0.7-0.1-1-0.3c-0.3-0.2-0.5-0.5-0.6-0.8l-2.8-7.3H77.5l-2.8,7.3
		c-0.1,0.3-0.3,0.5-0.6,0.8c-0.3,0.2-0.6,0.3-1,0.3h-3.6l12.6-31.6h4.7L99.4,75z M90.1,63.2L85.4,51c-0.3-0.8-0.7-1.9-1-3.2
		c-0.2,0.6-0.3,1.2-0.5,1.8c-0.2,0.5-0.3,1-0.5,1.5l-4.7,12.2H90.1z"/>
	<path class="st1" d="M112.9,43.4c2,0,3.8,0.2,5.3,0.7s2.7,1.1,3.7,2c1,0.9,1.7,1.9,2.2,3.1c0.5,1.2,0.7,2.6,0.7,4
		c0,1.5-0.3,2.8-0.8,4.1c-0.5,1.2-1.3,2.3-2.3,3.2s-2.2,1.6-3.7,2.1s-3.2,0.7-5.1,0.7H108V75h-4.7V43.4H112.9z M112.9,59.7
		c1.2,0,2.2-0.2,3.1-0.5s1.7-0.7,2.3-1.3c0.6-0.6,1.1-1.2,1.4-2c0.3-0.8,0.5-1.7,0.5-2.6c0-1.9-0.6-3.4-1.8-4.5
		c-1.2-1.1-3-1.7-5.4-1.7H108v12.6H112.9z"/>
	<path class="st1" d="M134.7,75h-4.7V43.4h4.7V75z"/>
</g>
<line class="st2" x1="142.3" y1="82.6" x2="214" y2="82.6"/>
<line class="st2" x1="65.2" y1="36.3" x2="-14" y2="36.3"/>
</svg>
