<?xml version="1.0" encoding="utf-8"?>
<!-- Generator: Adobe Illustrator 25.2.3, SVG Export Plug-In . SVG Version: 6.00 Build 0)  -->
<svg version="1.1" id="Layer_1" xmlns="http://www.w3.org/2000/svg" xmlns:xlink="http://www.w3.org/1999/xlink" x="0px" y="0px"
	 width="203px" height="152px" viewBox="0 0 203 152" style="enable-background:new 0 0 203 152;" xml:space="preserve">
<style type="text/css">
	.st0{fill-rule:evenodd;clip-rule:evenodd;fill:#A0A0A0;stroke:#C0C0C0;stroke-miterlimit:10;}
	.st1{fill:#A0A0A0;stroke:#C0C0C0;stroke-width:16;stroke-linecap:round;stroke-linejoin:round;stroke-miterlimit:3;}
	.st2{fill:none;stroke:#D8D8D8;stroke-width:2;stroke-miterlimit:10;}
</style>
<symbol  id="hand_2" viewBox="-339.5 -438.3 679 876.6">
	<g id="Layer_3_2_">
		<path class="st0" d="M209.5,105.9c0-0.4,0-0.8,0-1.2l-0.1-68.4l0.1-15.5l-0.1,15.5l0.1,68.4C209.5,105.1,209.5,105.5,209.5,105.9
			v32.8l8.4-1c9.2-0.7,22.7-1,40.6-1c30.8,0,52.2-13.7,64.2-41c3.8-8.5,6.4-17.9,7.8-28.2c0.7-5.1,1-9.4,1-12.8l-0.2-51
			c-6.2-121.4-18.1-214.5-35.8-279.2c-17.6-64.7-33.3-116-47-153.8l-364-1c-36.2,173-108.2,307.6-216,404
			c24.7,114.7,82.4,116.1,173,4v373c0.1,3,0.4,6.5,0.9,10.6c1.3,10.3,3.7,19.7,7.1,28.2c10.4,25.5,28.3,39.1,53.9,40.8
			c25.6-1.7,43.6-15.3,54-40.8c3.5-8.5,5.8-17.9,7.2-28.2c0.5-4.1,0.8-7.6,0.9-10.6V225.6v-117v117h8.4c9.2-0.7,22.7-1,40.6-1
			c30.8,0,52.2-13.7,64.2-41c3.8-8.5,6.3-17.9,7.8-28.2c0.6-4.1,0.9-7.6,1-10.6v-75v75v42h8.4c9.2-0.7,22.7-1,40.6-1
			c30.8,0,52.2-13.7,64.2-41c3.8-8.5,6.4-17.9,7.8-28.2C209,112.4,209.4,108.9,209.5,105.9z M209,11.7l0.3,24.5L209,11.7z"/>
		<path class="st1" d="M209.5,105.9c-0.1,3-0.4,6.6-1,10.7c-1.4,10.3-4,19.7-7.8,28.2c-12,27.3-33.4,41-64.2,41
			c-17.9,0-31.4,0.3-40.6,1h-8.4v-42v-75 M87.5,144.7c-0.1,3-0.4,6.6-1,10.6c-1.4,10.3-4,19.7-7.8,28.2c-12,27.3-33.4,41-64.2,41
			c-17.9,0-31.4,0.3-40.6,1h-8.4v-117 M-34.5,225.6v125.1c-0.1,3-0.4,6.5-0.9,10.6c-1.3,10.3-3.7,19.7-7.2,28.2
			c-10.4,25.5-28.3,39.1-53.9,40.8c-25.6-1.7-43.5-15.3-53.9-40.8c-3.5-8.5-5.9-17.9-7.1-28.2c-0.5-4.1-0.9-7.6-0.9-10.6v-373
			c-90.6,112.1-148.3,110.8-172.9-4c107.8-96.4,179.8-231,215.9-404l364,1c13.7,37.8,29.4,89.1,47,153.8
			c17.7,64.7,29.6,157.8,35.8,279.2l0.2,51c0,3.4-0.3,7.7-1,12.8c-1.4,10.3-4,19.7-7.8,28.2c-12,27.3-33.4,41-64.2,41
			c-17.9,0-31.4,0.3-40.6,1l-8.4,1v-32.8c0-0.4,0-0.8,0-1.2l-0.1-68.4l0.1-15.5 M209,11.7l0.3,24.5"/>
	</g>
</symbol>
<line class="st2" x1="62.6" y1="27.5" x2="54.6" y2="19.4"/>
<line class="st2" x1="77" y1="25.7" x2="84.7" y2="17.9"/>
<line class="st2" x1="59.6" y1="40.4" x2="51" y2="48.9"/>
<line class="st2" x1="58.6" y1="34.2" x2="47.2" y2="34.2"/>
<line class="st2" x1="69.9" y1="24.7" x2="69.9" y2="15.5"/>
<g>
	<defs>
		
			<rect id="SVGID_1_" x="52.5" y="18" transform="matrix(0.9363 -0.3513 0.3513 0.9363 -19.9221 38.7245)" width="88.5" height="112.5"/>
	</defs>
	<clipPath id="SVGID_2_">
		<use xlink:href="#SVGID_1_"  style="overflow:visible;"/>
	</clipPath>
	<g style="clip-path:url(#SVGID_2_);">
		
			<use xlink:href="#hand_2"  width="679" height="876.6" id="XMLID_1_" x="-339.5" y="-438.3" transform="matrix(0.1137 -4.267009e-02 -4.267009e-02 -0.1137 96.7597 74.2657)" style="overflow:visible;"/>
	</g>
</g>
</svg>
