<?xml version="1.0" encoding="utf-8"?>
<!-- Generator: Adobe Illustrator 25.2.3, SVG Export Plug-In . SVG Version: 6.00 Build 0)  -->
<svg version="1.1" id="Layer_1" xmlns="http://www.w3.org/2000/svg" xmlns:xlink="http://www.w3.org/1999/xlink" x="0px" y="0px"
	 width="208px" height="117px" viewBox="0 0 208 117" style="enable-background:new 0 0 208 117;" xml:space="preserve">
<style type="text/css">
	.st0{fill:#D8D8D8;stroke:#F0F0F0;stroke-miterlimit:10;}
	.st1{fill:none;stroke:#D8D8D8;stroke-width:2;stroke-miterlimit:10;}
</style>
<path class="st0" d="M67,30.2c0,0-2.4,2.3-1.8,4.8c0.6,2.5,36.1,44.4,36.1,44.4l-25.7-4.7c0,0-4.2-0.4-7.2,6.2c-1.6,3.5,3,6.2,3,6.2
	c18.5,1.1,33.6,6.9,49.6,15.6l0,0c1.4,1.7,3.8,2.1,5.7,0.8L155,82.1c2-1.4,2.5-4.1,1.1-6.1l-2.1-3c-1.8-1.7-7.2-17.8-8.3-20
	l-12-23.1c0,0-5-3.5-8-1.1s-1.8,7.7-1.8,7.7l1.8,2.3l-4.2-5.5c0,0-5.9-4.7-9.4-2.3c-3.4,2.4-1.9,9.3-1.9,9.3l4.5,6.2l-7.8-10.3
	c0,0-7.7-4.6-10.7-2.5c-3,2.1-2.4,10.9-2.4,10.9l7.8,11L79.2,29.8c0,0-6.3-3.6-8.3-2.2C64.5,32,67,30.2,67,30.2z"/>
<line class="st1" x1="65.1" y1="26" x2="57.1" y2="17.9"/>
<line class="st1" x1="79.5" y1="24.2" x2="87.2" y2="16.4"/>
<line class="st1" x1="62.1" y1="38.9" x2="53.5" y2="47.4"/>
<line class="st1" x1="61.1" y1="32.7" x2="49.7" y2="32.7"/>
<line class="st1" x1="72.4" y1="23.2" x2="72.4" y2="14"/>
</svg>
