<?xml version="1.0" encoding="utf-8"?>
<!-- Generator: Adobe Illustrator 25.2.3, SVG Export Plug-In . SVG Version: 6.00 Build 0)  -->
<svg version="1.1" id="Layer_1" xmlns="http://www.w3.org/2000/svg" xmlns:xlink="http://www.w3.org/1999/xlink" x="0px" y="0px"
	 width="208px" height="117px" viewBox="0 0 208 117" style="enable-background:new 0 0 208 117;" xml:space="preserve">
<style type="text/css">
	.st0{fill:#FFFFFF;stroke:#D8D8D8;stroke-miterlimit:10;}
	.st1{fill:none;stroke:#D8D8D8;stroke-miterlimit:10;}
	.st2{fill:#D8D8D8;stroke:#FFFFFF;stroke-miterlimit:10;}
	.st3{fill:#D8D8D8;}
</style>
<rect x="19.9" y="42.6" class="st0" width="172.7" height="80.4"/>
<line class="st1" x1="79.5" y1="123" x2="79.5" y2="42.8"/>
<line class="st1" x1="138.1" y1="125.1" x2="138.1" y2="43"/>
<polygon class="st2" points="102.1,75.9 128.9,40.9 137.2,49.2 "/>
<path class="st3" d="M157,37l-12.4-12.4c-1.1-1.1-1.1-2.8,0-3.9l0,0c1.1-1.1,2.8-1.1,3.9,0l12.4,12.4c1.1,1.1,1.1,2.8,0,3.9l0,0
	C159.8,37.9,158.1,37.9,157,37z"/>
<polygon class="st3" points="146.1,48.5 133.7,35.9 146.7,28.1 153.9,35.3 "/>
<path class="st2" d="M140.4,57l-17.6-17.6c-1.1-1.1-1.1-2.8,0-3.9l2.6-2.8c1.1-1.1,2.8-1.1,3.9,0l17.6,17.6c1.1,1.1,1.1,2.8,0,3.9
	l-2.6,2.6C143.2,58.1,141.5,58.1,140.4,57z"/>
<line class="st1" x1="20" y1="62.7" x2="192.6" y2="62.7"/>
<line class="st1" x1="20" y1="82.7" x2="192.6" y2="82.7"/>
<line class="st1" x1="20" y1="102.7" x2="192.6" y2="102.7"/>
</svg>
