<?xml version="1.0" encoding="utf-8"?>
<!-- Generator: Adobe Illustrator 25.2.3, SVG Export Plug-In . SVG Version: 6.00 Build 0)  -->
<svg version="1.1" id="Layer_1" xmlns="http://www.w3.org/2000/svg" xmlns:xlink="http://www.w3.org/1999/xlink" x="0px" y="0px"
	 width="203px" height="152px" viewBox="0 0 203 152" style="enable-background:new 0 0 203 152;" xml:space="preserve">
<style type="text/css">
	.st0{fill:#FFFFFF;stroke:#D8D8D8;stroke-miterlimit:10;}
	.st1{fill:none;stroke:#D8D8D8;stroke-miterlimit:10;}
	.st2{fill:#A0A0A0;}
	.st3{fill:#A0A0A0;stroke:#FFFFFF;stroke-miterlimit:10;}
</style>
<rect x="-2.6" y="34.1" class="st0" width="212.7" height="120.4"/>
<line class="st1" x1="67" y1="154.5" x2="67" y2="34.3"/>
<line class="st1" x1="145.6" y1="156.6" x2="145.6" y2="34.5"/>
<path class="st2" d="M154.5,28.5l-12.4-12.4c-1.1-1.1-1.1-2.8,0-3.9l0,0c1.1-1.1,2.8-1.1,3.9,0l12.4,12.4c1.1,1.1,1.1,2.8,0,3.9l0,0
	C157.3,29.4,155.6,29.4,154.5,28.5z"/>
<polygon class="st2" points="143.6,40 131.2,27.4 144.2,19.6 151.4,26.8 "/>
<line class="st1" x1="-2.5" y1="54.2" x2="210.1" y2="54.2"/>
<line class="st1" x1="-2.5" y1="74.2" x2="210.1" y2="74.2"/>
<line class="st1" x1="-2.5" y1="94.2" x2="210.1" y2="94.2"/>
<line class="st1" x1="-2.5" y1="114.2" x2="210.1" y2="114.2"/>
<line class="st1" x1="-2.5" y1="134.2" x2="210.1" y2="134.2"/>
<polygon class="st3" points="99.6,67.4 126.4,32.4 134.7,40.7 "/>
<path class="st3" d="M137.9,48.5l-17.6-17.6c-1.1-1.1-1.1-2.8,0-3.9l2.6-2.8c1.1-1.1,2.8-1.1,3.9,0l17.6,17.6c1.1,1.1,1.1,2.8,0,3.9
	l-2.6,2.6C140.7,49.6,139,49.6,137.9,48.5z"/>
</svg>
