<?xml version="1.0" encoding="utf-8"?>
<!-- Generator: Adobe Illustrator 25.2.3, SVG Export Plug-In . SVG Version: 6.00 Build 0)  -->
<svg version="1.1" id="Layer_1" xmlns="http://www.w3.org/2000/svg" xmlns:xlink="http://www.w3.org/1999/xlink" x="0px" y="0px"
	 width="208px" height="117px" viewBox="0 0 208 117" style="enable-background:new 0 0 208 117;" xml:space="preserve">
<style type="text/css">
	.st0{fill:#D8D8D8;}
</style>
<rect x="-12.1" y="72.7" transform="matrix(6.123234e-17 -1 1 6.123234e-17 -55.7045 103.5993)" class="st0" width="72" height="13.9"/>
<rect x="-1.2" y="60.4" transform="matrix(6.123234e-17 -1 1 6.123234e-17 -20.2315 114.4421)" class="st0" width="96.7" height="13.9"/>
<rect x="40.4" y="78.9" transform="matrix(6.123234e-17 -1 1 6.123234e-17 -15.5463 156.0726)" class="st0" width="59.7" height="13.9"/>
<rect x="54.3" y="69.6" transform="matrix(6.123234e-17 -1 1 6.123234e-17 16.8479 169.9942)" class="st0" width="78.2" height="13.9"/>
<rect x="80.6" y="72.7" transform="matrix(6.123234e-17 -1 1 6.123234e-17 36.927 196.2308)" class="st0" width="72" height="13.9"/>
<rect x="91.4" y="60.4" transform="matrix(6.123234e-17 -1 1 6.123234e-17 72.4 207.0736)" class="st0" width="96.7" height="13.9"/>
<rect x="133" y="78.9" transform="matrix(6.123234e-17 -1 1 6.123234e-17 77.0853 248.7042)" class="st0" width="59.7" height="13.9"/>
<rect x="147" y="69.6" transform="matrix(6.123234e-17 -1 1 6.123234e-17 109.4795 262.6257)" class="st0" width="78.2" height="13.9"/>
</svg>
