<?xml version="1.0" encoding="utf-8"?>
<!-- Generator: Adobe Illustrator 25.2.3, SVG Export Plug-In . SVG Version: 6.00 Build 0)  -->
<svg version="1.1" id="Layer_1" xmlns="http://www.w3.org/2000/svg" xmlns:xlink="http://www.w3.org/1999/xlink" x="0px" y="0px"
	 width="60px" height="60px" viewBox="0 0 60 60" style="enable-background:new 0 0 60 60;" xml:space="preserve">
<style type="text/css">
	.st0{fill:#FFFFFF;stroke:#C0C0C0;stroke-width:2;stroke-miterlimit:10;}
	.st1{fill:#909090;}
	.st2{fill:#808080;}
</style>
<rect x="1" y="10" class="st0" width="58" height="40"/>
<rect x="5" y="14" class="st1" width="16" height="32"/>
<g>
	<path class="st2" d="M24.3,14.7h0.2v1.2h0.6v0.2h-0.8V14.7z"/>
	<path class="st2" d="M26.1,15.6c0,0.4-0.3,0.5-0.5,0.5c-0.3,0-0.5-0.2-0.5-0.5c0-0.3,0.2-0.5,0.5-0.5C25.9,15,26.1,15.2,26.1,15.6z
		 M25.3,15.6c0,0.2,0.1,0.4,0.3,0.4c0.2,0,0.3-0.2,0.3-0.4c0-0.2-0.1-0.4-0.3-0.4S25.3,15.4,25.3,15.6z"/>
	<path class="st2" d="M26.4,15.4c0-0.1,0-0.2,0-0.3h0.2l0,0.2h0c0-0.1,0.2-0.2,0.3-0.2c0,0,0,0,0.1,0v0.2c0,0,0,0-0.1,0
		c-0.1,0-0.2,0.1-0.2,0.2c0,0,0,0.1,0,0.1v0.5h-0.2V15.4z"/>
	<path class="st2" d="M27.1,15.6c0,0.2,0.2,0.3,0.3,0.3c0.1,0,0.2,0,0.3-0.1l0,0.1c-0.1,0-0.2,0.1-0.3,0.1c-0.3,0-0.5-0.2-0.5-0.5
		c0-0.3,0.2-0.5,0.5-0.5c0.3,0,0.4,0.3,0.4,0.5c0,0,0,0.1,0,0.1H27.1z M27.7,15.5c0-0.1,0-0.3-0.3-0.3c-0.2,0-0.3,0.2-0.3,0.3H27.7z
		"/>
	<path class="st2" d="M28.1,15.3c0-0.1,0-0.2,0-0.3h0.2l0,0.2h0c0.1-0.1,0.1-0.2,0.3-0.2c0.1,0,0.2,0.1,0.3,0.2h0
		c0-0.1,0.1-0.1,0.1-0.1c0.1,0,0.1-0.1,0.2-0.1c0.1,0,0.3,0.1,0.3,0.4v0.6h-0.2v-0.6c0-0.2-0.1-0.3-0.2-0.3c-0.1,0-0.2,0.1-0.2,0.2
		c0,0,0,0.1,0,0.1v0.6h-0.2v-0.6c0-0.2-0.1-0.3-0.2-0.3c-0.1,0-0.2,0.1-0.2,0.2c0,0,0,0.1,0,0.1v0.6h-0.2V15.3z"/>
	<path class="st2" d="M30.4,14.8c0,0.1,0,0.1-0.1,0.1c-0.1,0-0.1,0-0.1-0.1c0-0.1,0-0.1,0.1-0.1C30.4,14.7,30.4,14.7,30.4,14.8z
		 M30.2,16.1v-1h0.2v1H30.2z"/>
	<path class="st2" d="M30.7,15.4c0-0.1,0-0.2,0-0.3h0.2l0,0.2h0c0.1-0.1,0.2-0.2,0.4-0.2c0.2,0,0.4,0.2,0.4,0.5
		c0,0.4-0.2,0.5-0.5,0.5c-0.1,0-0.2-0.1-0.3-0.2h0v0.5h-0.2V15.4z M30.9,15.7C30.9,15.7,30.9,15.7,30.9,15.7c0,0.2,0.2,0.3,0.3,0.3
		c0.2,0,0.3-0.2,0.3-0.4c0-0.2-0.1-0.4-0.3-0.4c-0.1,0-0.2,0.1-0.3,0.2c0,0,0,0,0,0.1V15.7z"/>
	<path class="st2" d="M31.9,15.9c0.1,0,0.1,0.1,0.2,0.1c0.1,0,0.2-0.1,0.2-0.1c0-0.1-0.1-0.1-0.2-0.2c-0.2-0.1-0.3-0.2-0.3-0.3
		c0-0.2,0.1-0.3,0.3-0.3c0.1,0,0.2,0,0.2,0.1l0,0.1c0,0-0.1-0.1-0.2-0.1c-0.1,0-0.2,0.1-0.2,0.1c0,0.1,0.1,0.1,0.2,0.2
		c0.2,0.1,0.3,0.2,0.3,0.3c0,0.2-0.1,0.3-0.4,0.3c-0.1,0-0.2,0-0.3-0.1L31.9,15.9z"/>
	<path class="st2" d="M33.5,15.8c0,0.1,0,0.2,0,0.3h-0.2l0-0.2h0c0,0.1-0.2,0.2-0.3,0.2c-0.2,0-0.3-0.1-0.3-0.4v-0.6h0.2v0.6
		c0,0.2,0.1,0.3,0.2,0.3c0.1,0,0.2-0.1,0.2-0.2c0,0,0-0.1,0-0.1v-0.6h0.2V15.8z"/>
	<path class="st2" d="M33.8,15.3c0-0.1,0-0.2,0-0.3H34l0,0.2h0c0.1-0.1,0.1-0.2,0.3-0.2c0.1,0,0.2,0.1,0.3,0.2h0
		c0-0.1,0.1-0.1,0.1-0.1c0.1,0,0.1-0.1,0.2-0.1c0.1,0,0.3,0.1,0.3,0.4v0.6h-0.2v-0.6c0-0.2-0.1-0.3-0.2-0.3c-0.1,0-0.2,0.1-0.2,0.2
		c0,0,0,0.1,0,0.1v0.6h-0.2v-0.6c0-0.2-0.1-0.3-0.2-0.3c-0.1,0-0.2,0.1-0.2,0.2c0,0,0,0.1,0,0.1v0.6h-0.2V15.3z"/>
	<path class="st2" d="M36.9,14.6v1.2c0,0.1,0,0.2,0,0.3h-0.2l0-0.2h0c-0.1,0.1-0.2,0.2-0.3,0.2c-0.2,0-0.4-0.2-0.4-0.5
		c0-0.3,0.2-0.5,0.5-0.5c0.2,0,0.3,0.1,0.3,0.2h0v-0.6H36.9z M36.7,15.5C36.7,15.4,36.7,15.4,36.7,15.5c0-0.2-0.1-0.3-0.3-0.3
		c-0.2,0-0.3,0.2-0.3,0.4c0,0.2,0.1,0.4,0.3,0.4c0.1,0,0.2-0.1,0.3-0.2c0,0,0,0,0-0.1V15.5z"/>
	<path class="st2" d="M38.1,15.6c0,0.4-0.3,0.5-0.5,0.5c-0.3,0-0.5-0.2-0.5-0.5c0-0.3,0.2-0.5,0.5-0.5C37.9,15,38.1,15.2,38.1,15.6z
		 M37.3,15.6c0,0.2,0.1,0.4,0.3,0.4c0.2,0,0.3-0.2,0.3-0.4c0-0.2-0.1-0.4-0.3-0.4C37.4,15.2,37.3,15.4,37.3,15.6z"/>
	<path class="st2" d="M38.3,14.6h0.2v1.5h-0.2V14.6z"/>
	<path class="st2" d="M39.7,15.6c0,0.4-0.3,0.5-0.5,0.5c-0.3,0-0.5-0.2-0.5-0.5c0-0.3,0.2-0.5,0.5-0.5C39.5,15,39.7,15.2,39.7,15.6z
		 M38.9,15.6c0,0.2,0.1,0.4,0.3,0.4c0.2,0,0.3-0.2,0.3-0.4c0-0.2-0.1-0.4-0.3-0.4C39,15.2,38.9,15.4,38.9,15.6z"/>
	<path class="st2" d="M39.9,15.4c0-0.1,0-0.2,0-0.3h0.2l0,0.2h0c0-0.1,0.2-0.2,0.3-0.2c0,0,0,0,0.1,0v0.2c0,0,0,0-0.1,0
		c-0.1,0-0.2,0.1-0.2,0.2c0,0,0,0.1,0,0.1v0.5h-0.2V15.4z"/>
	<path class="st2" d="M41,15.9c0.1,0,0.1,0.1,0.2,0.1c0.1,0,0.2-0.1,0.2-0.1c0-0.1-0.1-0.1-0.2-0.2c-0.2-0.1-0.3-0.2-0.3-0.3
		c0-0.2,0.1-0.3,0.3-0.3c0.1,0,0.2,0,0.2,0.1l0,0.1c0,0-0.1-0.1-0.2-0.1c-0.1,0-0.2,0.1-0.2,0.1c0,0.1,0.1,0.1,0.2,0.2
		c0.2,0.1,0.3,0.2,0.3,0.3c0,0.2-0.1,0.3-0.4,0.3c-0.1,0-0.2,0-0.3-0.1L41,15.9z"/>
	<path class="st2" d="M42.1,14.8c0,0.1,0,0.1-0.1,0.1c-0.1,0-0.1,0-0.1-0.1c0-0.1,0-0.1,0.1-0.1C42,14.7,42.1,14.7,42.1,14.8z
		 M41.9,16.1v-1h0.2v1H41.9z"/>
	<path class="st2" d="M42.6,14.8v0.3h0.3v0.1h-0.3v0.5c0,0.1,0,0.2,0.1,0.2c0,0,0.1,0,0.1,0l0,0.1c0,0-0.1,0-0.2,0
		c-0.1,0-0.2,0-0.2-0.1c-0.1-0.1-0.1-0.1-0.1-0.3v-0.5h-0.2v-0.1h0.2v-0.2L42.6,14.8z"/>
	<path class="st2" d="M44,16.1l0-0.1h0c-0.1,0.1-0.2,0.1-0.3,0.1c-0.2,0-0.3-0.1-0.3-0.3c0-0.2,0.2-0.4,0.6-0.4v0
		c0-0.1,0-0.2-0.2-0.2c-0.1,0-0.2,0-0.3,0.1l0-0.1c0.1-0.1,0.2-0.1,0.3-0.1c0.3,0,0.4,0.2,0.4,0.4v0.4c0,0.1,0,0.2,0,0.2H44z
		 M44,15.5c-0.2,0-0.4,0-0.4,0.2c0,0.1,0.1,0.2,0.2,0.2c0.1,0,0.2-0.1,0.2-0.2c0,0,0,0,0-0.1V15.5z"/>
	<path class="st2" d="M44.5,15.3c0-0.1,0-0.2,0-0.3h0.2l0,0.2h0c0.1-0.1,0.1-0.2,0.3-0.2c0.1,0,0.2,0.1,0.3,0.2h0
		c0-0.1,0.1-0.1,0.1-0.1c0.1,0,0.1-0.1,0.2-0.1c0.1,0,0.3,0.1,0.3,0.4v0.6h-0.2v-0.6c0-0.2-0.1-0.3-0.2-0.3c-0.1,0-0.2,0.1-0.2,0.2
		c0,0,0,0.1,0,0.1v0.6h-0.2v-0.6c0-0.2-0.1-0.3-0.2-0.3c-0.1,0-0.2,0.1-0.2,0.2c0,0,0,0.1,0,0.1v0.6h-0.2V15.3z"/>
	<path class="st2" d="M46.3,15.6c0,0.2,0.2,0.3,0.3,0.3c0.1,0,0.2,0,0.3-0.1l0,0.1c-0.1,0-0.2,0.1-0.3,0.1c-0.3,0-0.5-0.2-0.5-0.5
		c0-0.3,0.2-0.5,0.5-0.5c0.3,0,0.4,0.3,0.4,0.5c0,0,0,0.1,0,0.1H46.3z M46.8,15.5c0-0.1,0-0.3-0.3-0.3c-0.2,0-0.3,0.2-0.3,0.3H46.8z
		"/>
	<path class="st2" d="M47.5,14.8v0.3h0.3v0.1h-0.3v0.5c0,0.1,0,0.2,0.1,0.2c0,0,0.1,0,0.1,0l0,0.1c0,0-0.1,0-0.2,0
		c-0.1,0-0.2,0-0.2-0.1c-0.1-0.1-0.1-0.1-0.1-0.3v-0.5h-0.2v-0.1h0.2v-0.2L47.5,14.8z"/>
	<path class="st2" d="M47.8,16.3c0-0.1,0.1-0.3,0.1-0.5l0.2,0c0,0.2-0.1,0.4-0.2,0.5L47.8,16.3z"/>
	<path class="st2" d="M25,18.5c0,0-0.2,0.1-0.3,0.1c-0.3,0-0.5-0.2-0.5-0.5c0-0.3,0.2-0.5,0.5-0.5c0.1,0,0.2,0,0.3,0.1l0,0.1
		c0,0-0.1,0-0.2,0c-0.2,0-0.4,0.2-0.4,0.4c0,0.2,0.1,0.4,0.3,0.4c0.1,0,0.2,0,0.2,0L25,18.5z"/>
	<path class="st2" d="M26.1,18c0,0.4-0.3,0.5-0.5,0.5c-0.3,0-0.5-0.2-0.5-0.5c0-0.3,0.2-0.5,0.5-0.5C25.9,17.5,26.1,17.7,26.1,18z
		 M25.3,18c0,0.2,0.1,0.4,0.3,0.4c0.2,0,0.3-0.2,0.3-0.4c0-0.2-0.1-0.4-0.3-0.4S25.3,17.9,25.3,18z"/>
	<path class="st2" d="M26.3,17.8c0-0.1,0-0.2,0-0.3h0.2l0,0.2h0c0-0.1,0.2-0.2,0.3-0.2c0.1,0,0.4,0.1,0.4,0.4v0.6H27V18
		c0-0.2-0.1-0.3-0.2-0.3c-0.1,0-0.2,0.1-0.2,0.2c0,0,0,0.1,0,0.1v0.6h-0.2V17.8z"/>
	<path class="st2" d="M27.5,18.4c0.1,0,0.1,0.1,0.2,0.1c0.1,0,0.2-0.1,0.2-0.1c0-0.1-0.1-0.1-0.2-0.2c-0.2-0.1-0.3-0.2-0.3-0.3
		c0-0.2,0.1-0.3,0.3-0.3c0.1,0,0.2,0,0.2,0.1l0,0.1c0,0-0.1-0.1-0.2-0.1c-0.1,0-0.2,0.1-0.2,0.1c0,0.1,0.1,0.1,0.2,0.2
		c0.2,0.1,0.3,0.2,0.3,0.3c0,0.2-0.1,0.3-0.4,0.3c-0.1,0-0.2,0-0.3-0.1L27.5,18.4z"/>
	<path class="st2" d="M28.4,18.1c0,0.2,0.2,0.3,0.3,0.3c0.1,0,0.2,0,0.3-0.1l0,0.1c-0.1,0-0.2,0.1-0.3,0.1c-0.3,0-0.5-0.2-0.5-0.5
		c0-0.3,0.2-0.5,0.5-0.5c0.3,0,0.4,0.3,0.4,0.5c0,0,0,0.1,0,0.1H28.4z M28.9,17.9c0-0.1,0-0.3-0.3-0.3c-0.2,0-0.3,0.2-0.3,0.3H28.9z
		"/>
	<path class="st2" d="M30.1,18.5c0,0-0.2,0.1-0.3,0.1c-0.3,0-0.5-0.2-0.5-0.5c0-0.3,0.2-0.5,0.5-0.5c0.1,0,0.2,0,0.3,0.1l0,0.1
		c0,0-0.1,0-0.2,0c-0.2,0-0.4,0.2-0.4,0.4c0,0.2,0.1,0.4,0.3,0.4c0.1,0,0.2,0,0.2,0L30.1,18.5z"/>
	<path class="st2" d="M30.5,17.3v0.3h0.3v0.1h-0.3v0.5c0,0.1,0,0.2,0.1,0.2c0,0,0.1,0,0.1,0l0,0.1c0,0-0.1,0-0.2,0
		c-0.1,0-0.2,0-0.2-0.1c-0.1-0.1-0.1-0.1-0.1-0.3v-0.5h-0.2v-0.1h0.2v-0.2L30.5,17.3z"/>
	<path class="st2" d="M31.1,18.1c0,0.2,0.2,0.3,0.3,0.3c0.1,0,0.2,0,0.3-0.1l0,0.1c-0.1,0-0.2,0.1-0.3,0.1c-0.3,0-0.5-0.2-0.5-0.5
		c0-0.3,0.2-0.5,0.5-0.5c0.3,0,0.4,0.3,0.4,0.5c0,0,0,0.1,0,0.1H31.1z M31.6,17.9c0-0.1,0-0.3-0.3-0.3c-0.2,0-0.3,0.2-0.3,0.3H31.6z
		"/>
	<path class="st2" d="M32.2,17.3v0.3h0.3v0.1h-0.3v0.5c0,0.1,0,0.2,0.1,0.2c0,0,0.1,0,0.1,0l0,0.1c0,0-0.1,0-0.2,0
		c-0.1,0-0.2,0-0.2-0.1c-0.1-0.1-0.1-0.1-0.1-0.3v-0.5h-0.2v-0.1H32v-0.2L32.2,17.3z"/>
	<path class="st2" d="M33.5,18.3c0,0.1,0,0.2,0,0.3h-0.2l0-0.2h0c0,0.1-0.2,0.2-0.3,0.2c-0.2,0-0.3-0.1-0.3-0.4v-0.6h0.2v0.6
		c0,0.2,0.1,0.3,0.2,0.3c0.1,0,0.2-0.1,0.2-0.2c0,0,0-0.1,0-0.1v-0.6h0.2V18.3z"/>
	<path class="st2" d="M33.8,17.9c0-0.1,0-0.2,0-0.3H34l0,0.2h0c0-0.1,0.2-0.2,0.3-0.2c0,0,0,0,0.1,0v0.2c0,0,0,0-0.1,0
		c-0.1,0-0.2,0.1-0.2,0.2c0,0,0,0.1,0,0.1v0.5h-0.2V17.9z"/>
	<path class="st2" d="M35.5,18.5l0-0.1h0c-0.1,0.1-0.2,0.1-0.3,0.1c-0.2,0-0.3-0.1-0.3-0.3c0-0.2,0.2-0.4,0.6-0.4v0
		c0-0.1,0-0.2-0.2-0.2c-0.1,0-0.2,0-0.3,0.1l0-0.1c0.1-0.1,0.2-0.1,0.3-0.1c0.3,0,0.4,0.2,0.4,0.4v0.4c0,0.1,0,0.2,0,0.2H35.5z
		 M35.5,18c-0.2,0-0.4,0-0.4,0.2c0,0.1,0.1,0.2,0.2,0.2c0.1,0,0.2-0.1,0.2-0.2c0,0,0,0,0-0.1V18z"/>
	<path class="st2" d="M36.8,17.1v1.2c0,0.1,0,0.2,0,0.3h-0.2l0-0.2h0c-0.1,0.1-0.2,0.2-0.3,0.2c-0.2,0-0.4-0.2-0.4-0.5
		c0-0.3,0.2-0.5,0.5-0.5c0.2,0,0.3,0.1,0.3,0.2h0v-0.6H36.8z M36.6,18C36.6,17.9,36.6,17.9,36.6,18c0-0.2-0.1-0.3-0.3-0.3
		c-0.2,0-0.3,0.2-0.3,0.4c0,0.2,0.1,0.4,0.3,0.4c0.1,0,0.2-0.1,0.3-0.2c0,0,0,0,0-0.1V18z"/>
	<path class="st2" d="M37.3,17.3c0,0.1,0,0.1-0.1,0.1c-0.1,0-0.1,0-0.1-0.1c0-0.1,0-0.1,0.1-0.1C37.3,17.1,37.3,17.2,37.3,17.3z
		 M37.1,18.5v-1h0.2v1H37.1z"/>
	<path class="st2" d="M37.6,17.9c0-0.1,0-0.2,0-0.3h0.2l0,0.2h0c0.1-0.1,0.2-0.2,0.4-0.2c0.2,0,0.4,0.2,0.4,0.5
		c0,0.4-0.2,0.5-0.5,0.5c-0.1,0-0.2-0.1-0.3-0.2h0V19h-0.2V17.9z M37.8,18.1C37.8,18.2,37.8,18.2,37.8,18.1c0,0.2,0.2,0.3,0.3,0.3
		c0.2,0,0.3-0.2,0.3-0.4c0-0.2-0.1-0.4-0.3-0.4c-0.1,0-0.2,0.1-0.3,0.2c0,0,0,0,0,0.1V18.1z"/>
	<path class="st2" d="M39,17.3c0,0.1,0,0.1-0.1,0.1c-0.1,0-0.1,0-0.1-0.1c0-0.1,0-0.1,0.1-0.1C38.9,17.1,39,17.2,39,17.3z
		 M38.8,18.5v-1H39v1H38.8z"/>
	<path class="st2" d="M39.2,18.4c0.1,0,0.1,0.1,0.2,0.1c0.1,0,0.2-0.1,0.2-0.1c0-0.1-0.1-0.1-0.2-0.2c-0.2-0.1-0.3-0.2-0.3-0.3
		c0-0.2,0.1-0.3,0.3-0.3c0.1,0,0.2,0,0.2,0.1l0,0.1c0,0-0.1-0.1-0.2-0.1c-0.1,0-0.2,0.1-0.2,0.1c0,0.1,0.1,0.1,0.2,0.2
		c0.2,0.1,0.3,0.2,0.3,0.3c0,0.2-0.1,0.3-0.4,0.3c-0.1,0-0.2,0-0.3-0.1L39.2,18.4z"/>
	<path class="st2" d="M40.8,18.5c0,0-0.2,0.1-0.3,0.1c-0.3,0-0.5-0.2-0.5-0.5c0-0.3,0.2-0.5,0.5-0.5c0.1,0,0.2,0,0.3,0.1l0,0.1
		c0,0-0.1,0-0.2,0c-0.2,0-0.4,0.2-0.4,0.4c0,0.2,0.1,0.4,0.3,0.4c0.1,0,0.2,0,0.2,0L40.8,18.5z"/>
	<path class="st2" d="M41.2,17.3c0,0.1,0,0.1-0.1,0.1c-0.1,0-0.1,0-0.1-0.1c0-0.1,0-0.1,0.1-0.1C41.2,17.1,41.2,17.2,41.2,17.3z
		 M41,18.5v-1h0.2v1H41z"/>
	<path class="st2" d="M41.5,17.8c0-0.1,0-0.2,0-0.3h0.2l0,0.2h0c0-0.1,0.2-0.2,0.3-0.2c0.1,0,0.4,0.1,0.4,0.4v0.6h-0.2V18
		c0-0.2-0.1-0.3-0.2-0.3c-0.1,0-0.2,0.1-0.2,0.2c0,0,0,0.1,0,0.1v0.6h-0.2V17.8z"/>
	<path class="st2" d="M43.5,17.5c0,0.1,0,0.2,0,0.3v0.6c0,0.2,0,0.4-0.1,0.5C43.2,19,43.1,19,43,19c-0.1,0-0.3,0-0.3-0.1l0-0.1
		c0.1,0,0.2,0.1,0.3,0.1c0.2,0,0.3-0.1,0.3-0.4v-0.1h0c-0.1,0.1-0.2,0.2-0.3,0.2c-0.2,0-0.4-0.2-0.4-0.5c0-0.3,0.2-0.5,0.5-0.5
		c0.2,0,0.3,0.1,0.3,0.2h0l0-0.2H43.5z M43.3,17.9C43.3,17.9,43.3,17.9,43.3,17.9c0-0.2-0.1-0.3-0.3-0.3c-0.2,0-0.3,0.1-0.3,0.4
		c0,0.2,0.1,0.4,0.3,0.4c0.1,0,0.2-0.1,0.3-0.2c0,0,0-0.1,0-0.1V17.9z"/>
	<path class="st2" d="M44.3,18.1c0,0.2,0.2,0.3,0.3,0.3c0.1,0,0.2,0,0.3-0.1l0,0.1c-0.1,0-0.2,0.1-0.3,0.1c-0.3,0-0.5-0.2-0.5-0.5
		c0-0.3,0.2-0.5,0.5-0.5c0.3,0,0.4,0.3,0.4,0.5c0,0,0,0.1,0,0.1H44.3z M44.9,17.9c0-0.1,0-0.3-0.3-0.3c-0.2,0-0.3,0.2-0.3,0.3H44.9z
		"/>
	<path class="st2" d="M45.3,17.1h0.2v1.5h-0.2V17.1z"/>
	<path class="st2" d="M46,17.3c0,0.1,0,0.1-0.1,0.1c-0.1,0-0.1,0-0.1-0.1c0-0.1,0-0.1,0.1-0.1C45.9,17.1,46,17.2,46,17.3z
		 M45.8,18.5v-1h0.2v1H45.8z"/>
	<path class="st2" d="M46.5,17.3v0.3h0.3v0.1h-0.3v0.5c0,0.1,0,0.2,0.1,0.2c0,0,0.1,0,0.1,0l0,0.1c0,0-0.1,0-0.2,0
		c-0.1,0-0.2,0-0.2-0.1c-0.1-0.1-0.1-0.1-0.1-0.3v-0.5h-0.2v-0.1h0.2v-0.2L46.5,17.3z"/>
	<path class="st2" d="M46.9,18.4c0-0.1,0.1-0.1,0.1-0.1s0.1,0.1,0.1,0.1c0,0.1,0,0.1-0.1,0.1C46.9,18.6,46.9,18.5,46.9,18.4z"/>
	<path class="st2" d="M48.8,18.5c-0.1,0-0.2,0.1-0.4,0.1c-0.4,0-0.7-0.2-0.7-0.7c0-0.4,0.3-0.7,0.7-0.7c0.2,0,0.3,0,0.3,0.1l0,0.1
		c-0.1,0-0.2-0.1-0.3-0.1c-0.3,0-0.5,0.2-0.5,0.6c0,0.3,0.2,0.6,0.5,0.6c0.1,0,0.2,0,0.3-0.1L48.8,18.5z"/>
	<path class="st2" d="M49,17.9c0-0.1,0-0.2,0-0.3h0.2l0,0.2h0c0-0.1,0.2-0.2,0.3-0.2c0,0,0,0,0.1,0v0.2c0,0,0,0-0.1,0
		c-0.1,0-0.2,0.1-0.2,0.2c0,0,0,0.1,0,0.1v0.5H49V17.9z"/>
	<path class="st2" d="M50.2,18.5l0-0.1h0c-0.1,0.1-0.2,0.1-0.3,0.1c-0.2,0-0.3-0.1-0.3-0.3c0-0.2,0.2-0.4,0.6-0.4v0
		c0-0.1,0-0.2-0.2-0.2c-0.1,0-0.2,0-0.3,0.1l0-0.1c0.1-0.1,0.2-0.1,0.3-0.1c0.3,0,0.4,0.2,0.4,0.4v0.4c0,0.1,0,0.2,0,0.2H50.2z
		 M50.2,18c-0.2,0-0.4,0-0.4,0.2c0,0.1,0.1,0.2,0.2,0.2c0.1,0,0.2-0.1,0.2-0.2c0,0,0,0,0-0.1V18z"/>
	<path class="st2" d="M50.6,18.4c0.1,0,0.1,0.1,0.2,0.1c0.1,0,0.2-0.1,0.2-0.1c0-0.1-0.1-0.1-0.2-0.2c-0.2-0.1-0.3-0.2-0.3-0.3
		c0-0.2,0.1-0.3,0.3-0.3c0.1,0,0.2,0,0.2,0.1l0,0.1c0,0-0.1-0.1-0.2-0.1c-0.1,0-0.2,0.1-0.2,0.1c0,0.1,0.1,0.1,0.2,0.2
		c0.2,0.1,0.3,0.2,0.3,0.3c0,0.2-0.1,0.3-0.4,0.3c-0.1,0-0.2,0-0.3-0.1L50.6,18.4z"/>
	<path class="st2" d="M24.3,20.3c0-0.1,0-0.2,0-0.3h0.2l0,0.2h0c0-0.1,0.2-0.2,0.3-0.2c0,0,0,0,0.1,0v0.2c0,0,0,0-0.1,0
		c-0.1,0-0.2,0.1-0.2,0.2c0,0,0,0.1,0,0.1V21h-0.2V20.3z"/>
	<path class="st2" d="M25.8,20.8c0,0.1,0,0.2,0,0.3h-0.2l0-0.2h0c0,0.1-0.2,0.2-0.3,0.2c-0.2,0-0.3-0.1-0.3-0.4V20h0.2v0.6
		c0,0.2,0.1,0.3,0.2,0.3c0.1,0,0.2-0.1,0.2-0.2c0,0,0-0.1,0-0.1V20h0.2V20.8z"/>
	<path class="st2" d="M26.3,19.7V20h0.3v0.1h-0.3v0.5c0,0.1,0,0.2,0.1,0.2c0,0,0.1,0,0.1,0l0,0.1c0,0-0.1,0-0.2,0
		c-0.1,0-0.2,0-0.2-0.1c-0.1-0.1-0.1-0.1-0.1-0.3v-0.5H26V20h0.2v-0.2L26.3,19.7z"/>
	<path class="st2" d="M26.8,20.3c0-0.1,0-0.2,0-0.3h0.2l0,0.2h0c0-0.1,0.2-0.2,0.3-0.2c0,0,0,0,0.1,0v0.2c0,0,0,0-0.1,0
		c-0.1,0-0.2,0.1-0.2,0.2c0,0,0,0.1,0,0.1V21h-0.2V20.3z"/>
	<path class="st2" d="M28.3,20.8c0,0.1,0,0.2,0,0.3h-0.2l0-0.2h0c0,0.1-0.2,0.2-0.3,0.2c-0.2,0-0.3-0.1-0.3-0.4V20h0.2v0.6
		c0,0.2,0.1,0.3,0.2,0.3c0.1,0,0.2-0.1,0.2-0.2c0,0,0-0.1,0-0.1V20h0.2V20.8z"/>
	<path class="st2" d="M28.6,20.3c0-0.1,0-0.2,0-0.3h0.2l0,0.2h0c0.1-0.1,0.1-0.2,0.3-0.2c0.1,0,0.2,0.1,0.3,0.2h0
		c0-0.1,0.1-0.1,0.1-0.1c0.1,0,0.1-0.1,0.2-0.1c0.1,0,0.3,0.1,0.3,0.4V21h-0.2v-0.6c0-0.2-0.1-0.3-0.2-0.3c-0.1,0-0.2,0.1-0.2,0.2
		c0,0,0,0.1,0,0.1V21h-0.2v-0.6c0-0.2-0.1-0.3-0.2-0.3c-0.1,0-0.2,0.1-0.2,0.2c0,0,0,0.1,0,0.1V21h-0.2V20.3z"/>
	<path class="st2" d="M30.8,20.3c0-0.1,0-0.2,0-0.3h0.2l0,0.2h0c0-0.1,0.2-0.2,0.3-0.2c0.1,0,0.4,0.1,0.4,0.4V21h-0.2v-0.6
		c0-0.2-0.1-0.3-0.2-0.3c-0.1,0-0.2,0.1-0.2,0.2c0,0,0,0.1,0,0.1V21h-0.2V20.3z"/>
	<path class="st2" d="M32.1,19.7c0,0.1,0,0.1-0.1,0.1c-0.1,0-0.1,0-0.1-0.1c0-0.1,0-0.1,0.1-0.1C32.1,19.6,32.1,19.7,32.1,19.7z
		 M31.9,21v-1h0.2v1H31.9z"/>
	<path class="st2" d="M32.4,20.8c0.1,0,0.1,0.1,0.2,0.1c0.1,0,0.2-0.1,0.2-0.1c0-0.1-0.1-0.1-0.2-0.2c-0.2-0.1-0.3-0.2-0.3-0.3
		c0-0.2,0.1-0.3,0.3-0.3c0.1,0,0.2,0,0.2,0.1l0,0.1c0,0-0.1-0.1-0.2-0.1c-0.1,0-0.2,0.1-0.2,0.1c0,0.1,0.1,0.1,0.2,0.2
		c0.2,0.1,0.3,0.2,0.3,0.3c0,0.2-0.1,0.3-0.4,0.3c-0.1,0-0.2,0-0.3-0.1L32.4,20.8z"/>
	<path class="st2" d="M33.2,19.6h0.2V21h-0.2V19.6z"/>
	<path class="st2" d="M34.2,20l0.2,0.6c0,0.1,0.1,0.2,0.1,0.3h0c0-0.1,0.1-0.2,0.1-0.3l0.2-0.6H35l-0.4,1h-0.2L34,20H34.2z"/>
	<path class="st2" d="M35.2,20.6c0,0.2,0.2,0.3,0.3,0.3c0.1,0,0.2,0,0.3-0.1l0,0.1c-0.1,0-0.2,0.1-0.3,0.1c-0.3,0-0.5-0.2-0.5-0.5
		c0-0.3,0.2-0.5,0.5-0.5c0.3,0,0.4,0.3,0.4,0.5c0,0,0,0.1,0,0.1H35.2z M35.8,20.4c0-0.1,0-0.3-0.3-0.3c-0.2,0-0.3,0.2-0.3,0.3H35.8z
		"/>
	<path class="st2" d="M36.2,19.6h0.2V21h-0.2V19.6z"/>
	<path class="st2" d="M37.1,20.3c0-0.1,0-0.2,0-0.3h0.2l0,0.2h0c0.1-0.1,0.1-0.2,0.3-0.2c0.1,0,0.2,0.1,0.3,0.2h0
		c0-0.1,0.1-0.1,0.1-0.1c0.1,0,0.1-0.1,0.2-0.1c0.1,0,0.3,0.1,0.3,0.4V21h-0.2v-0.6c0-0.2-0.1-0.3-0.2-0.3c-0.1,0-0.2,0.1-0.2,0.2
		c0,0,0,0.1,0,0.1V21h-0.2v-0.6c0-0.2-0.1-0.3-0.2-0.3c-0.1,0-0.2,0.1-0.2,0.2c0,0,0,0.1,0,0.1V21h-0.2V20.3z"/>
	<path class="st2" d="M39.4,21l0-0.1h0c-0.1,0.1-0.2,0.1-0.3,0.1c-0.2,0-0.3-0.1-0.3-0.3c0-0.2,0.2-0.4,0.6-0.4v0
		c0-0.1,0-0.2-0.2-0.2c-0.1,0-0.2,0-0.3,0.1l0-0.1C38.9,20,39,20,39.1,20c0.3,0,0.4,0.2,0.4,0.4v0.4c0,0.1,0,0.2,0,0.2H39.4z
		 M39.3,20.5c-0.2,0-0.4,0-0.4,0.2c0,0.1,0.1,0.2,0.2,0.2c0.1,0,0.2-0.1,0.2-0.2c0,0,0,0,0-0.1V20.5z"/>
	<path class="st2" d="M39.8,19.6H40V21h-0.2V19.6z"/>
	<path class="st2" d="M40.4,20.6c0,0.2,0.2,0.3,0.3,0.3c0.1,0,0.2,0,0.3-0.1l0,0.1c-0.1,0-0.2,0.1-0.3,0.1c-0.3,0-0.5-0.2-0.5-0.5
		c0-0.3,0.2-0.5,0.5-0.5c0.3,0,0.4,0.3,0.4,0.5c0,0,0,0.1,0,0.1H40.4z M40.9,20.4c0-0.1,0-0.3-0.3-0.3c-0.2,0-0.3,0.2-0.3,0.3H40.9z
		"/>
	<path class="st2" d="M41.3,20.8c0.1,0,0.1,0.1,0.2,0.1c0.1,0,0.2-0.1,0.2-0.1c0-0.1-0.1-0.1-0.2-0.2c-0.2-0.1-0.3-0.2-0.3-0.3
		c0-0.2,0.1-0.3,0.3-0.3c0.1,0,0.2,0,0.2,0.1l0,0.1c0,0-0.1-0.1-0.2-0.1c-0.1,0-0.2,0.1-0.2,0.1c0,0.1,0.1,0.1,0.2,0.2
		c0.2,0.1,0.3,0.2,0.3,0.3c0,0.2-0.1,0.3-0.4,0.3c-0.1,0-0.2,0-0.3-0.1L41.3,20.8z"/>
	<path class="st2" d="M43,20.8c0,0.1,0,0.2,0,0.3h-0.2l0-0.2h0c0,0.1-0.2,0.2-0.3,0.2c-0.2,0-0.3-0.1-0.3-0.4V20h0.2v0.6
		c0,0.2,0.1,0.3,0.2,0.3c0.1,0,0.2-0.1,0.2-0.2c0,0,0-0.1,0-0.1V20H43V20.8z"/>
	<path class="st2" d="M43.8,21l0-0.1h0c-0.1,0.1-0.2,0.1-0.3,0.1c-0.2,0-0.3-0.1-0.3-0.3c0-0.2,0.2-0.4,0.6-0.4v0
		c0-0.1,0-0.2-0.2-0.2c-0.1,0-0.2,0-0.3,0.1l0-0.1c0.1-0.1,0.2-0.1,0.3-0.1c0.3,0,0.4,0.2,0.4,0.4v0.4c0,0.1,0,0.2,0,0.2H43.8z
		 M43.8,20.5c-0.2,0-0.4,0-0.4,0.2c0,0.1,0.1,0.2,0.2,0.2c0.1,0,0.2-0.1,0.2-0.2c0,0,0,0,0-0.1V20.5z"/>
	<path class="st2" d="M45.2,19.6v1.2c0,0.1,0,0.2,0,0.3H45l0-0.2h0c-0.1,0.1-0.2,0.2-0.3,0.2c-0.2,0-0.4-0.2-0.4-0.5
		c0-0.3,0.2-0.5,0.5-0.5c0.2,0,0.3,0.1,0.3,0.2h0v-0.6H45.2z M45,20.4C45,20.4,45,20.4,45,20.4c0-0.2-0.1-0.3-0.3-0.3
		c-0.2,0-0.3,0.2-0.3,0.4c0,0.2,0.1,0.4,0.3,0.4c0.1,0,0.2-0.1,0.3-0.2c0,0,0,0,0-0.1V20.4z"/>
	<path class="st2" d="M46,21l0-0.1h0c-0.1,0.1-0.2,0.1-0.3,0.1c-0.2,0-0.3-0.1-0.3-0.3c0-0.2,0.2-0.4,0.6-0.4v0c0-0.1,0-0.2-0.2-0.2
		c-0.1,0-0.2,0-0.3,0.1l0-0.1c0.1-0.1,0.2-0.1,0.3-0.1c0.3,0,0.4,0.2,0.4,0.4v0.4c0,0.1,0,0.2,0,0.2H46z M46,20.5
		c-0.2,0-0.4,0-0.4,0.2c0,0.1,0.1,0.2,0.2,0.2c0.1,0,0.2-0.1,0.2-0.2c0,0,0,0,0-0.1V20.5z"/>
	<path class="st2" d="M47.5,21l0-0.1h0c-0.1,0.1-0.2,0.1-0.3,0.1c-0.2,0-0.3-0.1-0.3-0.3c0-0.2,0.2-0.4,0.6-0.4v0
		c0-0.1,0-0.2-0.2-0.2c-0.1,0-0.2,0-0.3,0.1l0-0.1C47,20,47.1,20,47.2,20c0.3,0,0.4,0.2,0.4,0.4v0.4c0,0.1,0,0.2,0,0.2H47.5z
		 M47.4,20.5c-0.2,0-0.4,0-0.4,0.2c0,0.1,0.1,0.2,0.2,0.2c0.1,0,0.2-0.1,0.2-0.2c0,0,0,0,0-0.1V20.5z"/>
	<path class="st2" d="M48.7,20.8c0,0.1,0,0.2,0,0.3h-0.2l0-0.2h0c0,0.1-0.2,0.2-0.3,0.2c-0.2,0-0.3-0.1-0.3-0.4V20h0.2v0.6
		c0,0.2,0.1,0.3,0.2,0.3c0.1,0,0.2-0.1,0.2-0.2c0,0,0-0.1,0-0.1V20h0.2V20.8z"/>
	<path class="st2" d="M49.7,21c0,0-0.2,0.1-0.3,0.1c-0.3,0-0.5-0.2-0.5-0.5c0-0.3,0.2-0.5,0.5-0.5c0.1,0,0.2,0,0.3,0.1l0,0.1
		c0,0-0.1,0-0.2,0c-0.2,0-0.4,0.2-0.4,0.4c0,0.2,0.1,0.4,0.3,0.4c0.1,0,0.2,0,0.2,0L49.7,21z"/>
	<path class="st2" d="M50.2,19.7V20h0.3v0.1h-0.3v0.5c0,0.1,0,0.2,0.1,0.2c0,0,0.1,0,0.1,0l0,0.1c0,0-0.1,0-0.2,0
		c-0.1,0-0.2,0-0.2-0.1C50,20.9,50,20.8,50,20.7v-0.5h-0.2V20H50v-0.2L50.2,19.7z"/>
	<path class="st2" d="M51.6,20.5c0,0.4-0.3,0.5-0.5,0.5c-0.3,0-0.5-0.2-0.5-0.5c0-0.3,0.2-0.5,0.5-0.5C51.4,20,51.6,20.2,51.6,20.5z
		 M50.8,20.5c0,0.2,0.1,0.4,0.3,0.4c0.2,0,0.3-0.2,0.3-0.4c0-0.2-0.1-0.4-0.3-0.4C50.9,20.1,50.8,20.3,50.8,20.5z"/>
	<path class="st2" d="M51.8,20.3c0-0.1,0-0.2,0-0.3h0.2l0,0.2h0c0-0.1,0.2-0.2,0.3-0.2c0,0,0,0,0.1,0v0.2c0,0,0,0-0.1,0
		c-0.1,0-0.2,0.1-0.2,0.2c0,0,0,0.1,0,0.1V21h-0.2V20.3z"/>
	<path class="st2" d="M52.3,20.9c0-0.1,0.1-0.1,0.1-0.1s0.1,0.1,0.1,0.1c0,0.1,0,0.1-0.1,0.1C52.4,21.1,52.3,21,52.3,20.9z"/>
	<path class="st2" d="M25.5,22.9c0-0.2,0-0.4,0-0.6h0c0,0.2-0.1,0.3-0.2,0.5L25,23.5h-0.1l-0.2-0.7c-0.1-0.2-0.1-0.4-0.2-0.5h0
		c0,0.2,0,0.4,0,0.6l0,0.6h-0.2l0.1-1.4h0.2l0.2,0.7c0.1,0.2,0.1,0.3,0.1,0.5h0c0-0.1,0.1-0.3,0.1-0.5l0.2-0.7h0.2l0.1,1.4h-0.2
		L25.5,22.9z"/>
	<path class="st2" d="M26.9,23c0,0.4-0.3,0.5-0.5,0.5c-0.3,0-0.5-0.2-0.5-0.5c0-0.3,0.2-0.5,0.5-0.5C26.7,22.5,26.9,22.7,26.9,23z
		 M26.1,23c0,0.2,0.1,0.4,0.3,0.4c0.2,0,0.3-0.2,0.3-0.4c0-0.2-0.1-0.4-0.3-0.4S26.1,22.8,26.1,23z"/>
	<path class="st2" d="M27.1,22.8c0-0.1,0-0.2,0-0.3h0.2l0,0.2h0c0-0.1,0.2-0.2,0.3-0.2c0,0,0,0,0.1,0v0.2c0,0,0,0-0.1,0
		c-0.1,0-0.2,0.1-0.2,0.2c0,0,0,0.1,0,0.1v0.5h-0.2V22.8z"/>
	<path class="st2" d="M27.8,23.5c0-0.1,0-0.2,0-0.3V22H28v0.6h0c0.1-0.1,0.2-0.2,0.3-0.2c0.2,0,0.4,0.2,0.4,0.5
		c0,0.4-0.2,0.5-0.5,0.5c-0.1,0-0.3-0.1-0.3-0.2h0l0,0.2H27.8z M28,23.1C28,23.1,28,23.2,28,23.1c0,0.2,0.1,0.3,0.3,0.3
		c0.2,0,0.3-0.2,0.3-0.4c0-0.2-0.1-0.4-0.3-0.4c-0.1,0-0.2,0.1-0.3,0.2c0,0,0,0,0,0.1V23.1z"/>
	<path class="st2" d="M29.2,22.2c0,0.1,0,0.1-0.1,0.1c-0.1,0-0.1,0-0.1-0.1c0-0.1,0-0.1,0.1-0.1C29.1,22.1,29.2,22.2,29.2,22.2z
		 M29,23.5v-1h0.2v1H29z"/>
	<path class="st2" d="M29.9,22.5l0.2,0.6c0,0.1,0.1,0.2,0.1,0.3h0c0-0.1,0.1-0.2,0.1-0.3l0.2-0.6h0.2l-0.4,1h-0.2l-0.4-1H29.9z"/>
	<path class="st2" d="M31.4,23.5l0-0.1h0c-0.1,0.1-0.2,0.1-0.3,0.1c-0.2,0-0.3-0.1-0.3-0.3c0-0.2,0.2-0.4,0.6-0.4v0
		c0-0.1,0-0.2-0.2-0.2c-0.1,0-0.2,0-0.3,0.1l0-0.1c0.1-0.1,0.2-0.1,0.3-0.1c0.3,0,0.4,0.2,0.4,0.4v0.4c0,0.1,0,0.2,0,0.2H31.4z
		 M31.4,23c-0.2,0-0.4,0-0.4,0.2c0,0.1,0.1,0.2,0.2,0.2c0.1,0,0.2-0.1,0.2-0.2c0,0,0,0,0-0.1V23z"/>
	<path class="st2" d="M31.9,22.8c0-0.1,0-0.2,0-0.3H32l0,0.2h0c0-0.1,0.2-0.2,0.3-0.2c0,0,0,0,0.1,0v0.2c0,0,0,0-0.1,0
		c-0.1,0-0.2,0.1-0.2,0.2c0,0,0,0.1,0,0.1v0.5h-0.2V22.8z"/>
	<path class="st2" d="M32.8,22.2c0,0.1,0,0.1-0.1,0.1c-0.1,0-0.1,0-0.1-0.1c0-0.1,0-0.1,0.1-0.1C32.7,22.1,32.8,22.2,32.8,22.2z
		 M32.5,23.5v-1h0.2v1H32.5z"/>
	<path class="st2" d="M33.9,23.2c0,0.1,0,0.2,0,0.3h-0.2l0-0.2h0c0,0.1-0.2,0.2-0.3,0.2c-0.2,0-0.3-0.1-0.3-0.4v-0.6h0.2v0.6
		c0,0.2,0.1,0.3,0.2,0.3c0.1,0,0.2-0.1,0.2-0.2c0,0,0-0.1,0-0.1v-0.6h0.2V23.2z"/>
	<path class="st2" d="M34.1,23.3c0.1,0,0.1,0.1,0.2,0.1c0.1,0,0.2-0.1,0.2-0.1c0-0.1-0.1-0.1-0.2-0.2c-0.2-0.1-0.3-0.2-0.3-0.3
		c0-0.2,0.1-0.3,0.3-0.3c0.1,0,0.2,0,0.2,0.1l0,0.1c0,0-0.1-0.1-0.2-0.1c-0.1,0-0.2,0.1-0.2,0.1c0,0.1,0.1,0.1,0.2,0.2
		c0.2,0.1,0.3,0.2,0.3,0.3c0,0.2-0.1,0.3-0.4,0.3c-0.1,0-0.2,0-0.3-0.1L34.1,23.3z"/>
	<path class="st2" d="M36.3,23.2c0,0.1,0,0.2,0,0.3h-0.2l0-0.2h0c0,0.1-0.2,0.2-0.3,0.2c-0.2,0-0.3-0.1-0.3-0.4v-0.6h0.2v0.6
		c0,0.2,0.1,0.3,0.2,0.3c0.1,0,0.2-0.1,0.2-0.2c0,0,0-0.1,0-0.1v-0.6h0.2V23.2z"/>
	<path class="st2" d="M36.8,22.2v0.3h0.3v0.1h-0.3v0.5c0,0.1,0,0.2,0.1,0.2c0,0,0.1,0,0.1,0l0,0.1c0,0-0.1,0-0.2,0
		c-0.1,0-0.2,0-0.2-0.1c-0.1-0.1-0.1-0.1-0.1-0.3v-0.5h-0.2v-0.1h0.2v-0.2L36.8,22.2z"/>
	<path class="st2" d="M38.6,23c0,0.4-0.3,0.5-0.5,0.5c-0.3,0-0.5-0.2-0.5-0.5c0-0.3,0.2-0.5,0.5-0.5C38.4,22.5,38.6,22.7,38.6,23z
		 M37.8,23c0,0.2,0.1,0.4,0.3,0.4c0.2,0,0.3-0.2,0.3-0.4c0-0.2-0.1-0.4-0.3-0.4C37.9,22.6,37.8,22.8,37.8,23z"/>
	<path class="st2" d="M39.7,22v1.2c0,0.1,0,0.2,0,0.3h-0.2l0-0.2h0c-0.1,0.1-0.2,0.2-0.3,0.2c-0.2,0-0.4-0.2-0.4-0.5
		c0-0.3,0.2-0.5,0.5-0.5c0.2,0,0.3,0.1,0.3,0.2h0V22H39.7z M39.5,22.9C39.5,22.9,39.5,22.9,39.5,22.9c0-0.2-0.1-0.3-0.3-0.3
		c-0.2,0-0.3,0.2-0.3,0.4c0,0.2,0.1,0.4,0.3,0.4c0.1,0,0.2-0.1,0.3-0.2c0,0,0,0,0-0.1V22.9z"/>
	<path class="st2" d="M40.2,22.2c0,0.1,0,0.1-0.1,0.1c-0.1,0-0.1,0-0.1-0.1c0-0.1,0-0.1,0.1-0.1C40.2,22.1,40.2,22.2,40.2,22.2z
		 M40,23.5v-1h0.2v1H40z"/>
	<path class="st2" d="M41.4,23c0,0.4-0.3,0.5-0.5,0.5c-0.3,0-0.5-0.2-0.5-0.5c0-0.3,0.2-0.5,0.5-0.5C41.2,22.5,41.4,22.7,41.4,23z
		 M40.6,23c0,0.2,0.1,0.4,0.3,0.4c0.2,0,0.3-0.2,0.3-0.4c0-0.2-0.1-0.4-0.3-0.4C40.7,22.6,40.6,22.8,40.6,23z"/>
	<path class="st2" d="M42.6,23.5l0-0.1h0c-0.1,0.1-0.2,0.1-0.3,0.1c-0.2,0-0.3-0.1-0.3-0.3c0-0.2,0.2-0.4,0.6-0.4v0
		c0-0.1,0-0.2-0.2-0.2c-0.1,0-0.2,0-0.3,0.1l0-0.1c0.1-0.1,0.2-0.1,0.3-0.1c0.3,0,0.4,0.2,0.4,0.4v0.4c0,0.1,0,0.2,0,0.2H42.6z
		 M42.6,23c-0.2,0-0.4,0-0.4,0.2c0,0.1,0.1,0.2,0.2,0.2c0.1,0,0.2-0.1,0.2-0.2c0,0,0,0,0-0.1V23z"/>
	<path class="st2" d="M43.5,22.8c0-0.1,0-0.2,0-0.3h0.2l0,0.2h0c0.1-0.1,0.2-0.2,0.4-0.2c0.2,0,0.4,0.2,0.4,0.5
		c0,0.4-0.2,0.5-0.5,0.5c-0.1,0-0.2-0.1-0.3-0.2h0v0.5h-0.2V22.8z M43.7,23.1C43.7,23.1,43.7,23.2,43.7,23.1c0,0.2,0.2,0.3,0.3,0.3
		c0.2,0,0.3-0.2,0.3-0.4c0-0.2-0.1-0.4-0.3-0.4c-0.1,0-0.2,0.1-0.3,0.2c0,0,0,0,0,0.1V23.1z"/>
	<path class="st2" d="M45.5,23.2c0,0.1,0,0.2,0,0.3h-0.2l0-0.2h0c0,0.1-0.2,0.2-0.3,0.2c-0.2,0-0.3-0.1-0.3-0.4v-0.6h0.2v0.6
		c0,0.2,0.1,0.3,0.2,0.3c0.1,0,0.2-0.1,0.2-0.2c0,0,0-0.1,0-0.1v-0.6h0.2V23.2z"/>
	<path class="st2" d="M45.8,22H46v1.5h-0.2V22z"/>
	<path class="st2" d="M46.4,22.5l0.2,0.6c0,0.1,0.1,0.2,0.1,0.3h0c0-0.1,0.1-0.2,0.1-0.3l0.2-0.6h0.2l-0.4,1h-0.2l-0.4-1H46.4z"/>
	<path class="st2" d="M47.5,22.2c0,0.1,0,0.1-0.1,0.1c-0.1,0-0.1,0-0.1-0.1c0-0.1,0-0.1,0.1-0.1C47.5,22.1,47.5,22.2,47.5,22.2z
		 M47.3,23.5v-1h0.2v1H47.3z"/>
	<path class="st2" d="M47.8,22.8c0-0.1,0-0.2,0-0.3h0.2l0,0.2h0c0-0.1,0.2-0.2,0.3-0.2c0.1,0,0.4,0.1,0.4,0.4v0.6h-0.2v-0.6
		c0-0.2-0.1-0.3-0.2-0.3c-0.1,0-0.2,0.1-0.2,0.2c0,0,0,0.1,0,0.1v0.6h-0.2V22.8z"/>
	<path class="st2" d="M49.5,23.5l0-0.1h0c-0.1,0.1-0.2,0.1-0.3,0.1c-0.2,0-0.3-0.1-0.3-0.3c0-0.2,0.2-0.4,0.6-0.4v0
		c0-0.1,0-0.2-0.2-0.2c-0.1,0-0.2,0-0.3,0.1l0-0.1c0.1-0.1,0.2-0.1,0.3-0.1c0.3,0,0.4,0.2,0.4,0.4v0.4c0,0.1,0,0.2,0,0.2H49.5z
		 M49.5,23c-0.2,0-0.4,0-0.4,0.2c0,0.1,0.1,0.2,0.2,0.2c0.1,0,0.2-0.1,0.2-0.2c0,0,0,0,0-0.1V23z"/>
	<path class="st2" d="M49.9,22.8c0-0.1,0-0.2,0-0.3h0.2l0,0.2h0c0-0.1,0.2-0.2,0.3-0.2c0,0,0,0,0.1,0v0.2c0,0,0,0-0.1,0
		c-0.1,0-0.2,0.1-0.2,0.2c0,0,0,0.1,0,0.1v0.5h-0.2V22.8z"/>
	<path class="st2" d="M50.5,23.4c0-0.1,0.1-0.1,0.1-0.1s0.1,0.1,0.1,0.1c0,0.1,0,0.1-0.1,0.1C50.5,23.5,50.5,23.5,50.5,23.4z"/>
	<path class="st2" d="M25.5,25.4c0-0.2,0-0.4,0-0.6h0c0,0.2-0.1,0.3-0.2,0.5L25,26h-0.1l-0.2-0.7c-0.1-0.2-0.1-0.4-0.2-0.5h0
		c0,0.2,0,0.4,0,0.6l0,0.6h-0.2l0.1-1.4h0.2l0.2,0.7c0.1,0.2,0.1,0.3,0.1,0.5h0c0-0.1,0.1-0.3,0.1-0.5l0.2-0.7h0.2l0.1,1.4h-0.2
		L25.5,25.4z"/>
	<path class="st2" d="M26.9,25.5c0,0.4-0.3,0.5-0.5,0.5c-0.3,0-0.5-0.2-0.5-0.5c0-0.3,0.2-0.5,0.5-0.5C26.7,25,26.9,25.2,26.9,25.5z
		 M26.1,25.5c0,0.2,0.1,0.4,0.3,0.4c0.2,0,0.3-0.2,0.3-0.4c0-0.2-0.1-0.4-0.3-0.4S26.1,25.3,26.1,25.5z"/>
	<path class="st2" d="M27.1,25.3c0-0.1,0-0.2,0-0.3h0.2l0,0.2h0c0-0.1,0.2-0.2,0.3-0.2c0,0,0,0,0.1,0v0.2c0,0,0,0-0.1,0
		c-0.1,0-0.2,0.1-0.2,0.2c0,0,0,0.1,0,0.1V26h-0.2V25.3z"/>
	<path class="st2" d="M27.8,26c0-0.1,0-0.2,0-0.3v-1.2H28v0.6h0C28,25,28.1,25,28.3,25c0.2,0,0.4,0.2,0.4,0.5c0,0.4-0.2,0.5-0.5,0.5
		c-0.1,0-0.3-0.1-0.3-0.2h0l0,0.2H27.8z M28,25.6C28,25.6,28,25.6,28,25.6c0,0.2,0.1,0.3,0.3,0.3c0.2,0,0.3-0.2,0.3-0.4
		c0-0.2-0.1-0.4-0.3-0.4c-0.1,0-0.2,0.1-0.3,0.2c0,0,0,0,0,0.1V25.6z"/>
	<path class="st2" d="M29.2,24.7c0,0.1,0,0.1-0.1,0.1c-0.1,0-0.1,0-0.1-0.1c0-0.1,0-0.1,0.1-0.1C29.1,24.6,29.2,24.6,29.2,24.7z
		 M29,26v-1h0.2v1H29z"/>
	<path class="st2" d="M30.1,24.7c0,0.1,0,0.1-0.1,0.1c-0.1,0-0.1,0-0.1-0.1c0-0.1,0-0.1,0.1-0.1C30,24.6,30.1,24.6,30.1,24.7z
		 M29.9,26v-1h0.2v1H29.9z"/>
	<path class="st2" d="M31.2,24.5v1.2c0,0.1,0,0.2,0,0.3h-0.2l0-0.2h0C31,25.9,30.9,26,30.7,26c-0.2,0-0.4-0.2-0.4-0.5
		c0-0.3,0.2-0.5,0.5-0.5c0.2,0,0.3,0.1,0.3,0.2h0v-0.6H31.2z M31,25.4C31,25.4,31,25.3,31,25.4c0-0.2-0.1-0.3-0.3-0.3
		c-0.2,0-0.3,0.2-0.3,0.4c0,0.2,0.1,0.4,0.3,0.4c0.1,0,0.2-0.1,0.3-0.2c0,0,0,0,0-0.1V25.4z"/>
	<path class="st2" d="M32.1,25.5c0,0.2,0.2,0.3,0.3,0.3c0.1,0,0.2,0,0.3-0.1l0,0.1c-0.1,0-0.2,0.1-0.3,0.1c-0.3,0-0.5-0.2-0.5-0.5
		c0-0.3,0.2-0.5,0.5-0.5c0.3,0,0.4,0.3,0.4,0.5c0,0,0,0.1,0,0.1H32.1z M32.6,25.4c0-0.1,0-0.3-0.3-0.3c-0.2,0-0.3,0.2-0.3,0.3H32.6z
		"/>
	<path class="st2" d="M33,25.3c0-0.1,0-0.2,0-0.3h0.2l0,0.2h0c0-0.1,0.2-0.2,0.3-0.2c0.1,0,0.4,0.1,0.4,0.4V26h-0.2v-0.6
		c0-0.2-0.1-0.3-0.2-0.3c-0.1,0-0.2,0.1-0.2,0.2c0,0,0,0.1,0,0.1V26H33V25.3z"/>
	<path class="st2" d="M34.4,24.7c0,0.1,0,0.1-0.1,0.1c-0.1,0-0.1,0-0.1-0.1c0-0.1,0-0.1,0.1-0.1C34.3,24.6,34.4,24.6,34.4,24.7z
		 M34.2,26v-1h0.2v1H34.2z"/>
	<path class="st2" d="M34.6,25.3c0-0.1,0-0.2,0-0.3h0.2l0,0.2h0c0.1-0.1,0.1-0.2,0.3-0.2c0.1,0,0.2,0.1,0.3,0.2h0
		c0-0.1,0.1-0.1,0.1-0.1c0.1,0,0.1-0.1,0.2-0.1c0.1,0,0.3,0.1,0.3,0.4V26h-0.2v-0.6c0-0.2-0.1-0.3-0.2-0.3c-0.1,0-0.2,0.1-0.2,0.2
		c0,0,0,0.1,0,0.1V26h-0.2v-0.6c0-0.2-0.1-0.3-0.2-0.3c-0.1,0-0.2,0.1-0.2,0.2c0,0,0,0.1,0,0.1V26h-0.2V25.3z"/>
	<path class="st2" d="M36.9,25.5c0,0.2,0.2,0.3,0.3,0.3c0.1,0,0.2,0,0.3-0.1l0,0.1c-0.1,0-0.2,0.1-0.3,0.1c-0.3,0-0.5-0.2-0.5-0.5
		c0-0.3,0.2-0.5,0.5-0.5c0.3,0,0.4,0.3,0.4,0.5c0,0,0,0.1,0,0.1H36.9z M37.4,25.4c0-0.1,0-0.3-0.3-0.3c-0.2,0-0.3,0.2-0.3,0.3H37.4z
		"/>
	<path class="st2" d="M37.8,24.5H38V26h-0.2V24.5z"/>
	<path class="st2" d="M38.5,24.7c0,0.1,0,0.1-0.1,0.1c-0.1,0-0.1,0-0.1-0.1c0-0.1,0-0.1,0.1-0.1C38.5,24.6,38.5,24.6,38.5,24.7z
		 M38.3,26v-1h0.2v1H38.3z"/>
	<path class="st2" d="M39,24.7V25h0.3v0.1H39v0.5c0,0.1,0,0.2,0.1,0.2c0,0,0.1,0,0.1,0l0,0.1c0,0-0.1,0-0.2,0c-0.1,0-0.2,0-0.2-0.1
		c-0.1-0.1-0.1-0.1-0.1-0.3v-0.5h-0.2V25h0.2v-0.2L39,24.7z"/>
	<path class="st2" d="M39.4,25.9c0-0.1,0.1-0.1,0.1-0.1s0.1,0.1,0.1,0.1c0,0.1,0,0.1-0.1,0.1C39.5,26,39.4,26,39.4,25.9z"/>
	<path class="st2" d="M41.5,26.2c-0.2,0-0.4-0.1-0.5-0.2c0,0-0.1,0-0.1,0c-0.3,0-0.6-0.3-0.6-0.7c0-0.4,0.3-0.7,0.7-0.7
		c0.4,0,0.6,0.3,0.6,0.7c0,0.4-0.2,0.6-0.4,0.7v0c0.1,0,0.3,0.1,0.4,0.1L41.5,26.2z M41.4,25.3c0-0.3-0.1-0.6-0.4-0.6
		c-0.3,0-0.5,0.3-0.5,0.6c0,0.3,0.2,0.6,0.4,0.6C41.2,25.9,41.4,25.6,41.4,25.3z"/>
	<path class="st2" d="M42.6,25.7c0,0.1,0,0.2,0,0.3h-0.2l0-0.2h0c0,0.1-0.2,0.2-0.3,0.2c-0.2,0-0.3-0.1-0.3-0.4V25H42v0.6
		c0,0.2,0.1,0.3,0.2,0.3c0.1,0,0.2-0.1,0.2-0.2c0,0,0-0.1,0-0.1V25h0.2V25.7z"/>
	<path class="st2" d="M43.1,24.7c0,0.1,0,0.1-0.1,0.1c-0.1,0-0.1,0-0.1-0.1c0-0.1,0-0.1,0.1-0.1C43.1,24.6,43.1,24.6,43.1,24.7z
		 M42.9,26v-1h0.2v1H42.9z"/>
	<path class="st2" d="M43.4,25.8c0.1,0,0.1,0.1,0.2,0.1c0.1,0,0.2-0.1,0.2-0.1c0-0.1-0.1-0.1-0.2-0.2c-0.2-0.1-0.3-0.2-0.3-0.3
		c0-0.2,0.1-0.3,0.3-0.3c0.1,0,0.2,0,0.2,0.1l0,0.1c0,0-0.1-0.1-0.2-0.1c-0.1,0-0.2,0.1-0.2,0.1c0,0.1,0.1,0.1,0.2,0.2
		c0.2,0.1,0.3,0.2,0.3,0.3c0,0.2-0.1,0.3-0.4,0.3c-0.1,0-0.2,0-0.3-0.1L43.4,25.8z"/>
	<path class="st2" d="M44.9,25.8L44.9,25.8c-0.1,0.1-0.2,0.2-0.3,0.2c-0.2,0-0.4-0.2-0.4-0.5c0-0.4,0.2-0.5,0.5-0.5
		c0.2,0,0.3,0.1,0.3,0.2h0l0-0.2h0.2c0,0.1,0,0.2,0,0.3v1.1h-0.2V25.8z M44.9,25.4C44.9,25.4,44.9,25.3,44.9,25.4
		c0-0.2-0.1-0.3-0.3-0.3c-0.2,0-0.3,0.2-0.3,0.4c0,0.2,0.1,0.4,0.3,0.4c0.1,0,0.2-0.1,0.3-0.2c0,0,0-0.1,0-0.1V25.4z"/>
	<path class="st2" d="M46.2,25.7c0,0.1,0,0.2,0,0.3h-0.2l0-0.2h0c0,0.1-0.2,0.2-0.3,0.2c-0.2,0-0.3-0.1-0.3-0.4V25h0.2v0.6
		c0,0.2,0.1,0.3,0.2,0.3c0.1,0,0.2-0.1,0.2-0.2c0,0,0-0.1,0-0.1V25h0.2V25.7z"/>
	<path class="st2" d="M46.6,25.5c0,0.2,0.2,0.3,0.3,0.3c0.1,0,0.2,0,0.3-0.1l0,0.1C47.2,26,47.1,26,47,26c-0.3,0-0.5-0.2-0.5-0.5
		c0-0.3,0.2-0.5,0.5-0.5c0.3,0,0.4,0.3,0.4,0.5c0,0,0,0.1,0,0.1H46.6z M47.2,25.4c0-0.1,0-0.3-0.3-0.3c-0.2,0-0.3,0.2-0.3,0.3H47.2z
		"/>
	<path class="st2" d="M48.6,26l0-0.1h0C48.5,26,48.4,26,48.2,26c-0.2,0-0.3-0.1-0.3-0.3c0-0.2,0.2-0.4,0.6-0.4v0
		c0-0.1,0-0.2-0.2-0.2c-0.1,0-0.2,0-0.3,0.1l0-0.1c0.1-0.1,0.2-0.1,0.3-0.1c0.3,0,0.4,0.2,0.4,0.4v0.4c0,0.1,0,0.2,0,0.2H48.6z
		 M48.5,25.5c-0.2,0-0.4,0-0.4,0.2c0,0.1,0.1,0.2,0.2,0.2c0.1,0,0.2-0.1,0.2-0.2c0,0,0,0,0-0.1V25.5z"/>
	<path class="st2" d="M49.7,26c0,0-0.2,0.1-0.3,0.1c-0.3,0-0.5-0.2-0.5-0.5c0-0.3,0.2-0.5,0.5-0.5c0.1,0,0.2,0,0.3,0.1l0,0.1
		c0,0-0.1,0-0.2,0c-0.2,0-0.4,0.2-0.4,0.4c0,0.2,0.1,0.4,0.3,0.4c0.1,0,0.2,0,0.2,0L49.7,26z"/>
	<path class="st2" d="M50.4,24.5h0.2V26h-0.2V24.5z"/>
	<path class="st2" d="M51,25.5c0,0.2,0.2,0.3,0.3,0.3c0.1,0,0.2,0,0.3-0.1l0,0.1c-0.1,0-0.2,0.1-0.3,0.1c-0.3,0-0.5-0.2-0.5-0.5
		c0-0.3,0.2-0.5,0.5-0.5c0.3,0,0.4,0.3,0.4,0.5c0,0,0,0.1,0,0.1H51z M51.5,25.4c0-0.1,0-0.3-0.3-0.3c-0.2,0-0.3,0.2-0.3,0.3H51.5z"
		/>
	<path class="st2" d="M52.6,26c0,0-0.2,0.1-0.3,0.1c-0.3,0-0.5-0.2-0.5-0.5c0-0.3,0.2-0.5,0.5-0.5c0.1,0,0.2,0,0.3,0.1l0,0.1
		c0,0-0.1,0-0.2,0c-0.2,0-0.4,0.2-0.4,0.4c0,0.2,0.1,0.4,0.3,0.4c0.1,0,0.2,0,0.2,0L52.6,26z"/>
	<path class="st2" d="M53.1,24.7V25h0.3v0.1h-0.3v0.5c0,0.1,0,0.2,0.1,0.2c0,0,0.1,0,0.1,0l0,0.1c0,0-0.1,0-0.2,0
		c-0.1,0-0.2,0-0.2-0.1c-0.1-0.1-0.1-0.1-0.1-0.3v-0.5h-0.2V25h0.2v-0.2L53.1,24.7z"/>
	<path class="st2" d="M54.4,25.7c0,0.1,0,0.2,0,0.3h-0.2l0-0.2h0c0,0.1-0.2,0.2-0.3,0.2c-0.2,0-0.3-0.1-0.3-0.4V25h0.2v0.6
		c0,0.2,0.1,0.3,0.2,0.3c0.1,0,0.2-0.1,0.2-0.2c0,0,0-0.1,0-0.1V25h0.2V25.7z"/>
	<path class="st2" d="M54.7,25.8c0.1,0,0.1,0.1,0.2,0.1c0.1,0,0.2-0.1,0.2-0.1c0-0.1-0.1-0.1-0.2-0.2c-0.2-0.1-0.3-0.2-0.3-0.3
		c0-0.2,0.1-0.3,0.3-0.3c0.1,0,0.2,0,0.2,0.1l0,0.1c0,0-0.1-0.1-0.2-0.1c-0.1,0-0.2,0.1-0.2,0.1c0,0.1,0.1,0.1,0.2,0.2
		c0.2,0.1,0.3,0.2,0.3,0.3c0,0.2-0.1,0.3-0.4,0.3c-0.1,0-0.2,0-0.3-0.1L54.7,25.8z"/>
	<path class="st2" d="M24.3,27.8c0-0.1,0-0.2,0-0.3h0.2l0,0.2h0c0-0.1,0.2-0.2,0.3-0.2c0.1,0,0.4,0.1,0.4,0.4v0.6H25v-0.6
		c0-0.2-0.1-0.3-0.2-0.3c-0.1,0-0.2,0.1-0.2,0.2c0,0,0,0.1,0,0.1v0.6h-0.2V27.8z"/>
	<path class="st2" d="M25.5,28c0,0.2,0.2,0.3,0.3,0.3c0.1,0,0.2,0,0.3-0.1l0,0.1c-0.1,0-0.2,0.1-0.3,0.1c-0.3,0-0.5-0.2-0.5-0.5
		c0-0.3,0.2-0.5,0.5-0.5c0.3,0,0.4,0.3,0.4,0.5c0,0,0,0.1,0,0.1H25.5z M26.1,27.9c0-0.1,0-0.3-0.3-0.3c-0.2,0-0.3,0.2-0.3,0.3H26.1z
		"/>
	<path class="st2" d="M27.2,28.4c0,0-0.2,0.1-0.3,0.1c-0.3,0-0.5-0.2-0.5-0.5c0-0.3,0.2-0.5,0.5-0.5c0.1,0,0.2,0,0.3,0.1l0,0.1
		c0,0-0.1,0-0.2,0c-0.2,0-0.4,0.2-0.4,0.4c0,0.2,0.1,0.4,0.3,0.4c0.1,0,0.2,0,0.2,0L27.2,28.4z"/>
	<path class="st2" d="M28.4,28.5l0-0.1h0c-0.1,0.1-0.2,0.1-0.3,0.1c-0.2,0-0.3-0.1-0.3-0.3c0-0.2,0.2-0.4,0.6-0.4v0
		c0-0.1,0-0.2-0.2-0.2c-0.1,0-0.2,0-0.3,0.1l0-0.1c0.1-0.1,0.2-0.1,0.3-0.1c0.3,0,0.4,0.2,0.4,0.4v0.4c0,0.1,0,0.2,0,0.2H28.4z
		 M28.4,28c-0.2,0-0.4,0-0.4,0.2c0,0.1,0.1,0.2,0.2,0.2c0.1,0,0.2-0.1,0.2-0.2c0,0,0,0,0-0.1V28z"/>
	<path class="st2" d="M29.7,28.2c0,0.1,0,0.2,0,0.3h-0.2l0-0.2h0c0,0.1-0.2,0.2-0.3,0.2c-0.2,0-0.3-0.1-0.3-0.4v-0.6H29V28
		c0,0.2,0.1,0.3,0.2,0.3c0.1,0,0.2-0.1,0.2-0.2c0,0,0-0.1,0-0.1v-0.6h0.2V28.2z"/>
	<path class="st2" d="M30.8,27.5c0,0.1,0,0.2,0,0.3v0.6c0,0.2,0,0.4-0.1,0.5c-0.1,0.1-0.2,0.1-0.4,0.1c-0.1,0-0.3,0-0.3-0.1l0-0.1
		c0.1,0,0.2,0.1,0.3,0.1c0.2,0,0.3-0.1,0.3-0.4v-0.1h0c-0.1,0.1-0.2,0.2-0.3,0.2c-0.2,0-0.4-0.2-0.4-0.5c0-0.3,0.2-0.5,0.5-0.5
		c0.2,0,0.3,0.1,0.3,0.2h0l0-0.2H30.8z M30.6,27.9C30.6,27.8,30.6,27.8,30.6,27.9c0-0.2-0.1-0.3-0.3-0.3c-0.2,0-0.3,0.1-0.3,0.4
		c0,0.2,0.1,0.4,0.3,0.4c0.1,0,0.2-0.1,0.3-0.2c0,0,0-0.1,0-0.1V27.9z"/>
	<path class="st2" d="M32,28.2c0,0.1,0,0.2,0,0.3h-0.2l0-0.2h0c0,0.1-0.2,0.2-0.3,0.2c-0.2,0-0.3-0.1-0.3-0.4v-0.6h0.2V28
		c0,0.2,0.1,0.3,0.2,0.3c0.1,0,0.2-0.1,0.2-0.2c0,0,0-0.1,0-0.1v-0.6H32V28.2z"/>
	<path class="st2" d="M32.4,28c0,0.2,0.2,0.3,0.3,0.3c0.1,0,0.2,0,0.3-0.1l0,0.1c-0.1,0-0.2,0.1-0.3,0.1c-0.3,0-0.5-0.2-0.5-0.5
		c0-0.3,0.2-0.5,0.5-0.5c0.3,0,0.4,0.3,0.4,0.5c0,0,0,0.1,0,0.1H32.4z M32.9,27.9c0-0.1,0-0.3-0.3-0.3c-0.2,0-0.3,0.2-0.3,0.3H32.9z
		"/>
	<path class="st2" d="M33.8,27.5L34,28c0,0.1,0.1,0.2,0.1,0.3h0c0-0.1,0.1-0.2,0.1-0.3l0.2-0.6h0.2l-0.4,1H34l-0.4-1H33.8z"/>
	<path class="st2" d="M35.3,28.5l0-0.1h0c-0.1,0.1-0.2,0.1-0.3,0.1c-0.2,0-0.3-0.1-0.3-0.3c0-0.2,0.2-0.4,0.6-0.4v0
		c0-0.1,0-0.2-0.2-0.2c-0.1,0-0.2,0-0.3,0.1l0-0.1c0.1-0.1,0.2-0.1,0.3-0.1c0.3,0,0.4,0.2,0.4,0.4v0.4c0,0.1,0,0.2,0,0.2H35.3z
		 M35.3,28c-0.2,0-0.4,0-0.4,0.2c0,0.1,0.1,0.2,0.2,0.2c0.1,0,0.2-0.1,0.2-0.2c0,0,0,0,0-0.1V28z"/>
	<path class="st2" d="M35.7,27.8c0-0.1,0-0.2,0-0.3h0.2l0,0.2h0c0-0.1,0.2-0.2,0.3-0.2c0,0,0,0,0.1,0v0.2c0,0,0,0-0.1,0
		c-0.1,0-0.2,0.1-0.2,0.2c0,0,0,0.1,0,0.1v0.5h-0.2V27.8z"/>
	<path class="st2" d="M36.6,27.2c0,0.1,0,0.1-0.1,0.1c-0.1,0-0.1,0-0.1-0.1c0-0.1,0-0.1,0.1-0.1C36.6,27.1,36.6,27.1,36.6,27.2z
		 M36.4,28.5v-1h0.2v1H36.4z"/>
	<path class="st2" d="M37.7,28.2c0,0.1,0,0.2,0,0.3h-0.2l0-0.2h0c0,0.1-0.2,0.2-0.3,0.2c-0.2,0-0.3-0.1-0.3-0.4v-0.6h0.2V28
		c0,0.2,0.1,0.3,0.2,0.3c0.1,0,0.2-0.1,0.2-0.2c0,0,0-0.1,0-0.1v-0.6h0.2V28.2z"/>
	<path class="st2" d="M38,28.3c0.1,0,0.1,0.1,0.2,0.1c0.1,0,0.2-0.1,0.2-0.1c0-0.1-0.1-0.1-0.2-0.2C38.1,28,38,27.9,38,27.8
		c0-0.2,0.1-0.3,0.3-0.3c0.1,0,0.2,0,0.2,0.1l0,0.1c0,0-0.1-0.1-0.2-0.1c-0.1,0-0.2,0.1-0.2,0.1c0,0.1,0.1,0.1,0.2,0.2
		c0.2,0.1,0.3,0.2,0.3,0.3c0,0.2-0.1,0.3-0.4,0.3c-0.1,0-0.2,0-0.3-0.1L38,28.3z"/>
	<path class="st2" d="M40.1,28.2c0,0.1,0,0.2,0,0.3H40l0-0.2h0c0,0.1-0.2,0.2-0.3,0.2c-0.2,0-0.3-0.1-0.3-0.4v-0.6h0.2V28
		c0,0.2,0.1,0.3,0.2,0.3c0.1,0,0.2-0.1,0.2-0.2c0,0,0-0.1,0-0.1v-0.6h0.2V28.2z"/>
	<path class="st2" d="M40.4,27h0.2v1.5h-0.2V27z"/>
	<path class="st2" d="M40.9,27h0.2v1.5h-0.2V27z"/>
	<path class="st2" d="M42,28.5l0-0.1h0c-0.1,0.1-0.2,0.1-0.3,0.1c-0.2,0-0.3-0.1-0.3-0.3c0-0.2,0.2-0.4,0.6-0.4v0
		c0-0.1,0-0.2-0.2-0.2c-0.1,0-0.2,0-0.3,0.1l0-0.1c0.1-0.1,0.2-0.1,0.3-0.1c0.3,0,0.4,0.2,0.4,0.4v0.4c0,0.1,0,0.2,0,0.2H42z
		 M41.9,28c-0.2,0-0.4,0-0.4,0.2c0,0.1,0.1,0.2,0.2,0.2c0.1,0,0.2-0.1,0.2-0.2c0,0,0,0,0-0.1V28z"/>
	<path class="st2" d="M42.4,27.8c0-0.1,0-0.2,0-0.3h0.2l0,0.2h0c0.1-0.1,0.1-0.2,0.3-0.2c0.1,0,0.2,0.1,0.3,0.2h0
		c0-0.1,0.1-0.1,0.1-0.1c0.1,0,0.1-0.1,0.2-0.1c0.1,0,0.3,0.1,0.3,0.4v0.6h-0.2v-0.6c0-0.2-0.1-0.3-0.2-0.3c-0.1,0-0.2,0.1-0.2,0.2
		c0,0,0,0.1,0,0.1v0.6H43v-0.6c0-0.2-0.1-0.3-0.2-0.3c-0.1,0-0.2,0.1-0.2,0.2c0,0,0,0.1,0,0.1v0.6h-0.2V27.8z"/>
	<path class="st2" d="M44.9,28.4c0,0-0.2,0.1-0.3,0.1c-0.3,0-0.5-0.2-0.5-0.5c0-0.3,0.2-0.5,0.5-0.5c0.1,0,0.2,0,0.3,0.1l0,0.1
		c0,0-0.1,0-0.2,0c-0.2,0-0.4,0.2-0.4,0.4c0,0.2,0.1,0.4,0.3,0.4c0.1,0,0.2,0,0.2,0L44.9,28.4z"/>
	<path class="st2" d="M46,28c0,0.4-0.3,0.5-0.5,0.5c-0.3,0-0.5-0.2-0.5-0.5c0-0.3,0.2-0.5,0.5-0.5C45.8,27.5,46,27.7,46,28z
		 M45.2,28c0,0.2,0.1,0.4,0.3,0.4c0.2,0,0.3-0.2,0.3-0.4c0-0.2-0.1-0.4-0.3-0.4C45.3,27.6,45.2,27.8,45.2,28z"/>
	<path class="st2" d="M46.2,27.8c0-0.1,0-0.2,0-0.3h0.2l0,0.2h0c0-0.1,0.2-0.2,0.3-0.2c0,0,0,0,0.1,0v0.2c0,0,0,0-0.1,0
		c-0.1,0-0.2,0.1-0.2,0.2c0,0,0,0.1,0,0.1v0.5h-0.2V27.8z"/>
	<path class="st2" d="M46.9,27.8c0-0.1,0-0.2,0-0.3H47l0,0.2h0c0.1-0.1,0.2-0.2,0.4-0.2c0.2,0,0.4,0.2,0.4,0.5
		c0,0.4-0.2,0.5-0.5,0.5c-0.1,0-0.2-0.1-0.3-0.2h0v0.5h-0.2V27.8z M47.1,28.1C47.1,28.1,47.1,28.1,47.1,28.1c0,0.2,0.2,0.3,0.3,0.3
		c0.2,0,0.3-0.2,0.3-0.4c0-0.2-0.1-0.4-0.3-0.4c-0.1,0-0.2,0.1-0.3,0.2c0,0,0,0,0,0.1V28.1z"/>
	<path class="st2" d="M48.2,28c0,0.2,0.2,0.3,0.3,0.3c0.1,0,0.2,0,0.3-0.1l0,0.1c-0.1,0-0.2,0.1-0.3,0.1c-0.3,0-0.5-0.2-0.5-0.5
		c0-0.3,0.2-0.5,0.5-0.5c0.3,0,0.4,0.3,0.4,0.5c0,0,0,0.1,0,0.1H48.2z M48.7,27.9c0-0.1,0-0.3-0.3-0.3c-0.2,0-0.3,0.2-0.3,0.3H48.7z
		"/>
	<path class="st2" d="M49.1,27.8c0-0.1,0-0.2,0-0.3h0.2l0,0.2h0c0-0.1,0.2-0.2,0.3-0.2c0,0,0,0,0.1,0v0.2c0,0,0,0-0.1,0
		c-0.1,0-0.2,0.1-0.2,0.2c0,0,0,0.1,0,0.1v0.5h-0.2V27.8z"/>
	<path class="st2" d="M49.6,28.4c0-0.1,0.1-0.1,0.1-0.1s0.1,0.1,0.1,0.1c0,0.1,0,0.1-0.1,0.1C49.7,28.5,49.6,28.4,49.6,28.4z"/>
	<path class="st2" d="M24.5,30.5L24.4,31h-0.2l0.5-1.4h0.2l0.5,1.4h-0.2L25,30.5H24.5z M25,30.4L24.8,30c0-0.1-0.1-0.2-0.1-0.3h0
		c0,0.1,0,0.2-0.1,0.3l-0.1,0.4H25z"/>
	<path class="st2" d="M25.5,29.5h0.2V31h-0.2V29.5z"/>
	<path class="st2" d="M26.2,29.7c0,0.1,0,0.1-0.1,0.1c-0.1,0-0.1,0-0.1-0.1c0-0.1,0-0.1,0.1-0.1C26.2,29.6,26.2,29.6,26.2,29.7z
		 M26,31v-1h0.2v1H26z"/>
	<path class="st2" d="M27.2,30.8L27.2,30.8C27.1,30.9,27,31,26.9,31c-0.2,0-0.4-0.2-0.4-0.5c0-0.4,0.2-0.5,0.5-0.5
		c0.2,0,0.3,0.1,0.3,0.2h0l0-0.2h0.2c0,0.1,0,0.2,0,0.3v1.1h-0.2V30.8z M27.2,30.4C27.2,30.3,27.2,30.3,27.2,30.4
		c0-0.2-0.1-0.3-0.3-0.3c-0.2,0-0.3,0.2-0.3,0.4c0,0.2,0.1,0.4,0.3,0.4c0.1,0,0.2-0.1,0.3-0.2c0,0,0-0.1,0-0.1V30.4z"/>
	<path class="st2" d="M28.5,30.7c0,0.1,0,0.2,0,0.3h-0.2l0-0.2h0c0,0.1-0.2,0.2-0.3,0.2c-0.2,0-0.3-0.1-0.3-0.4V30h0.2v0.6
		c0,0.2,0.1,0.3,0.2,0.3c0.1,0,0.2-0.1,0.2-0.2c0,0,0-0.1,0-0.1V30h0.2V30.7z"/>
	<path class="st2" d="M29.4,31l0-0.1h0C29.3,30.9,29.2,31,29,31c-0.2,0-0.3-0.1-0.3-0.3c0-0.2,0.2-0.4,0.6-0.4v0
		c0-0.1,0-0.2-0.2-0.2c-0.1,0-0.2,0-0.3,0.1l0-0.1c0.1-0.1,0.2-0.1,0.3-0.1c0.3,0,0.4,0.2,0.4,0.4v0.4c0,0.1,0,0.2,0,0.2H29.4z
		 M29.3,30.5c-0.2,0-0.4,0-0.4,0.2c0,0.1,0.1,0.2,0.2,0.2c0.1,0,0.2-0.1,0.2-0.2c0,0,0,0,0-0.1V30.5z"/>
	<path class="st2" d="M29.8,30.2c0-0.1,0-0.2,0-0.3H30l0,0.2h0c0.1-0.1,0.1-0.2,0.3-0.2c0.1,0,0.2,0.1,0.3,0.2h0
		c0-0.1,0.1-0.1,0.1-0.1c0.1,0,0.1-0.1,0.2-0.1c0.1,0,0.3,0.1,0.3,0.4V31h-0.2v-0.6c0-0.2-0.1-0.3-0.2-0.3c-0.1,0-0.2,0.1-0.2,0.2
		c0,0,0,0.1,0,0.1V31h-0.2v-0.6c0-0.2-0.1-0.3-0.2-0.3c-0.1,0-0.2,0.1-0.2,0.2c0,0,0,0.1,0,0.1V31h-0.2V30.2z"/>
	<path class="st2" d="M32,29.5h0.2v0.6h0c0-0.1,0.1-0.1,0.1-0.1c0.1,0,0.1-0.1,0.2-0.1c0.1,0,0.4,0.1,0.4,0.4V31h-0.2v-0.6
		c0-0.2-0.1-0.3-0.2-0.3c-0.1,0-0.2,0.1-0.2,0.2c0,0,0,0.1,0,0.1V31H32V29.5z"/>
	<path class="st2" d="M33.2,30.5c0,0.2,0.2,0.3,0.3,0.3c0.1,0,0.2,0,0.3-0.1l0,0.1c-0.1,0-0.2,0.1-0.3,0.1c-0.3,0-0.5-0.2-0.5-0.5
		c0-0.3,0.2-0.5,0.5-0.5c0.3,0,0.4,0.3,0.4,0.5c0,0,0,0.1,0,0.1H33.2z M33.8,30.4c0-0.1,0-0.3-0.3-0.3c-0.2,0-0.3,0.2-0.3,0.3H33.8z
		"/>
	<path class="st2" d="M34.2,30.2c0-0.1,0-0.2,0-0.3h0.2l0,0.2h0c0-0.1,0.2-0.2,0.3-0.2c0.1,0,0.4,0.1,0.4,0.4V31h-0.2v-0.6
		c0-0.2-0.1-0.3-0.2-0.3c-0.1,0-0.2,0.1-0.2,0.2c0,0,0,0.1,0,0.1V31h-0.2V30.2z"/>
	<path class="st2" d="M36.2,29.5v1.2c0,0.1,0,0.2,0,0.3H36l0-0.2h0C36,30.9,35.8,31,35.7,31c-0.2,0-0.4-0.2-0.4-0.5
		c0-0.3,0.2-0.5,0.5-0.5c0.2,0,0.3,0.1,0.3,0.2h0v-0.6H36.2z M36,30.4C36,30.3,36,30.3,36,30.4c0-0.2-0.1-0.3-0.3-0.3
		c-0.2,0-0.3,0.2-0.3,0.4c0,0.2,0.1,0.4,0.3,0.4c0.1,0,0.2-0.1,0.3-0.2c0,0,0,0,0-0.1V30.4z"/>
	<path class="st2" d="M36.5,30.3c0-0.1,0-0.2,0-0.3h0.2l0,0.2h0c0-0.1,0.2-0.2,0.3-0.2c0,0,0,0,0.1,0v0.2c0,0,0,0-0.1,0
		c-0.1,0-0.2,0.1-0.2,0.2c0,0,0,0.1,0,0.1V31h-0.2V30.3z"/>
	<path class="st2" d="M37.2,30.5c0,0.2,0.2,0.3,0.3,0.3c0.1,0,0.2,0,0.3-0.1l0,0.1c-0.1,0-0.2,0.1-0.3,0.1c-0.3,0-0.5-0.2-0.5-0.5
		c0-0.3,0.2-0.5,0.5-0.5c0.3,0,0.4,0.3,0.4,0.5c0,0,0,0.1,0,0.1H37.2z M37.8,30.4c0-0.1,0-0.3-0.3-0.3c-0.2,0-0.3,0.2-0.3,0.3H37.8z
		"/>
	<path class="st2" d="M38.2,30.3c0-0.1,0-0.2,0-0.3h0.2l0,0.2h0c0-0.1,0.2-0.2,0.3-0.2c0,0,0,0,0.1,0v0.2c0,0,0,0-0.1,0
		c-0.1,0-0.2,0.1-0.2,0.2c0,0,0,0.1,0,0.1V31h-0.2V30.3z"/>
	<path class="st2" d="M39.1,29.7c0,0.1,0,0.1-0.1,0.1c-0.1,0-0.1,0-0.1-0.1c0-0.1,0-0.1,0.1-0.1C39,29.6,39.1,29.6,39.1,29.7z
		 M38.9,31v-1H39v1H38.9z"/>
	<path class="st2" d="M39.6,29.7V30h0.3v0.1h-0.3v0.5c0,0.1,0,0.2,0.1,0.2c0,0,0.1,0,0.1,0l0,0.1c0,0-0.1,0-0.2,0
		c-0.1,0-0.2,0-0.2-0.1c-0.1-0.1-0.1-0.1-0.1-0.3v-0.5h-0.2V30h0.2v-0.2L39.6,29.7z"/>
	<path class="st2" d="M40.5,30.2c0-0.1,0-0.2,0-0.3h0.2l0,0.2h0c0-0.1,0.2-0.2,0.3-0.2c0.1,0,0.4,0.1,0.4,0.4V31h-0.2v-0.6
		c0-0.2-0.1-0.3-0.2-0.3c-0.1,0-0.2,0.1-0.2,0.2c0,0,0,0.1,0,0.1V31h-0.2V30.2z"/>
	<path class="st2" d="M42.5,30.7c0,0.1,0,0.2,0,0.3h-0.2l0-0.2h0c0,0.1-0.2,0.2-0.3,0.2c-0.2,0-0.3-0.1-0.3-0.4V30h0.2v0.6
		c0,0.2,0.1,0.3,0.2,0.3c0.1,0,0.2-0.1,0.2-0.2c0,0,0-0.1,0-0.1V30h0.2V30.7z"/>
	<path class="st2" d="M42.8,29.5h0.2V31h-0.2V29.5z"/>
	<path class="st2" d="M43.2,29.5h0.2V31h-0.2V29.5z"/>
	<path class="st2" d="M44.3,31l0-0.1h0C44.2,30.9,44.1,31,44,31c-0.2,0-0.3-0.1-0.3-0.3c0-0.2,0.2-0.4,0.6-0.4v0
		c0-0.1,0-0.2-0.2-0.2c-0.1,0-0.2,0-0.3,0.1l0-0.1c0.1-0.1,0.2-0.1,0.3-0.1c0.3,0,0.4,0.2,0.4,0.4v0.4c0,0.1,0,0.2,0,0.2H44.3z
		 M44.3,30.5c-0.2,0-0.4,0-0.4,0.2c0,0.1,0.1,0.2,0.2,0.2c0.1,0,0.2-0.1,0.2-0.2c0,0,0,0,0-0.1V30.5z"/>
	<path class="st2" d="M45.3,30.5c0,0.2,0.2,0.3,0.3,0.3c0.1,0,0.2,0,0.3-0.1l0,0.1c-0.1,0-0.2,0.1-0.3,0.1c-0.3,0-0.5-0.2-0.5-0.5
		c0-0.3,0.2-0.5,0.5-0.5c0.3,0,0.4,0.3,0.4,0.5c0,0,0,0.1,0,0.1H45.3z M45.8,30.4c0-0.1,0-0.3-0.3-0.3c-0.2,0-0.3,0.2-0.3,0.3H45.8z
		"/>
	<path class="st2" d="M47,30.7c0,0.1,0,0.2,0,0.3h-0.2l0-0.2h0c0,0.1-0.2,0.2-0.3,0.2c-0.2,0-0.3-0.1-0.3-0.4V30h0.2v0.6
		c0,0.2,0.1,0.3,0.2,0.3c0.1,0,0.2-0.1,0.2-0.2c0,0,0-0.1,0-0.1V30H47V30.7z"/>
	<path class="st2" d="M47.8,29.5H48V31h-0.2V29.5z"/>
	<path class="st2" d="M48.5,29.7c0,0.1,0,0.1-0.1,0.1c-0.1,0-0.1,0-0.1-0.1c0-0.1,0-0.1,0.1-0.1C48.4,29.6,48.5,29.6,48.5,29.7z
		 M48.3,31v-1h0.2v1H48.3z"/>
	<path class="st2" d="M49.6,30c0,0.1,0,0.2,0,0.3v0.6c0,0.2,0,0.4-0.1,0.5c-0.1,0.1-0.2,0.1-0.4,0.1c-0.1,0-0.3,0-0.3-0.1l0-0.1
		c0.1,0,0.2,0.1,0.3,0.1c0.2,0,0.3-0.1,0.3-0.4v-0.1h0c-0.1,0.1-0.2,0.2-0.3,0.2c-0.2,0-0.4-0.2-0.4-0.5c0-0.3,0.2-0.5,0.5-0.5
		c0.2,0,0.3,0.1,0.3,0.2h0l0-0.2H49.6z M49.4,30.4C49.4,30.3,49.4,30.3,49.4,30.4c0-0.2-0.1-0.3-0.3-0.3c-0.2,0-0.3,0.1-0.3,0.4
		c0,0.2,0.1,0.4,0.3,0.4c0.1,0,0.2-0.1,0.3-0.2c0,0,0-0.1,0-0.1V30.4z"/>
	<path class="st2" d="M50.8,30.7c0,0.1,0,0.2,0,0.3h-0.2l0-0.2h0c0,0.1-0.2,0.2-0.3,0.2c-0.2,0-0.3-0.1-0.3-0.4V30h0.2v0.6
		c0,0.2,0.1,0.3,0.2,0.3c0.1,0,0.2-0.1,0.2-0.2c0,0,0-0.1,0-0.1V30h0.2V30.7z"/>
	<path class="st2" d="M51.1,29.5h0.2V31h-0.2V29.5z"/>
	<path class="st2" d="M52.1,31l0-0.1h0C52,30.9,51.9,31,51.8,31c-0.2,0-0.3-0.1-0.3-0.3c0-0.2,0.2-0.4,0.6-0.4v0
		c0-0.1,0-0.2-0.2-0.2c-0.1,0-0.2,0-0.3,0.1l0-0.1c0.1-0.1,0.2-0.1,0.3-0.1c0.3,0,0.4,0.2,0.4,0.4v0.4c0,0.1,0,0.2,0,0.2H52.1z
		 M52.1,30.5c-0.2,0-0.4,0-0.4,0.2c0,0.1,0.1,0.2,0.2,0.2c0.1,0,0.2-0.1,0.2-0.2c0,0,0,0,0-0.1V30.5z"/>
	<path class="st2" d="M24.3,32h0.2v1.5h-0.2V32z"/>
	<path class="st2" d="M25.3,33.5l0-0.1h0c-0.1,0.1-0.2,0.1-0.3,0.1c-0.2,0-0.3-0.1-0.3-0.3c0-0.2,0.2-0.4,0.6-0.4v0
		c0-0.1,0-0.2-0.2-0.2c-0.1,0-0.2,0-0.3,0.1l0-0.1c0.1-0.1,0.2-0.1,0.3-0.1c0.3,0,0.4,0.2,0.4,0.4v0.4c0,0.1,0,0.2,0,0.2H25.3z
		 M25.3,32.9c-0.2,0-0.4,0-0.4,0.2c0,0.1,0.1,0.2,0.2,0.2c0.1,0,0.2-0.1,0.2-0.2c0,0,0,0,0-0.1V32.9z"/>
	<path class="st2" d="M26.5,33.4c0,0-0.2,0.1-0.3,0.1c-0.3,0-0.5-0.2-0.5-0.5c0-0.3,0.2-0.5,0.5-0.5c0.1,0,0.2,0,0.3,0.1l0,0.1
		c0,0-0.1,0-0.2,0c-0.2,0-0.4,0.2-0.4,0.4c0,0.2,0.1,0.4,0.3,0.4c0.1,0,0.2,0,0.2-0.1L26.5,33.4z"/>
	<path class="st2" d="M26.9,32.2c0,0.1,0,0.1-0.1,0.1c-0.1,0-0.1,0-0.1-0.1c0-0.1,0-0.1,0.1-0.1C26.9,32,26.9,32.1,26.9,32.2z
		 M26.7,33.5v-1h0.2v1H26.7z"/>
	<path class="st2" d="M27.2,32.7c0-0.1,0-0.2,0-0.3h0.2l0,0.2h0c0-0.1,0.2-0.2,0.3-0.2c0.1,0,0.4,0.1,0.4,0.4v0.6h-0.2v-0.6
		c0-0.2-0.1-0.3-0.2-0.3c-0.1,0-0.2,0.1-0.2,0.2c0,0,0,0.1,0,0.1v0.6h-0.2V32.7z"/>
	<path class="st2" d="M28.5,32.2c0,0.1,0,0.1-0.1,0.1c-0.1,0-0.1,0-0.1-0.1c0-0.1,0-0.1,0.1-0.1C28.5,32,28.5,32.1,28.5,32.2z
		 M28.3,33.5v-1h0.2v1H28.3z"/>
	<path class="st2" d="M29.4,33.5l0-0.1h0c-0.1,0.1-0.2,0.1-0.3,0.1c-0.2,0-0.3-0.1-0.3-0.3c0-0.2,0.2-0.4,0.6-0.4v0
		c0-0.1,0-0.2-0.2-0.2c-0.1,0-0.2,0-0.3,0.1l0-0.1c0.1-0.1,0.2-0.1,0.3-0.1c0.3,0,0.4,0.2,0.4,0.4v0.4c0,0.1,0,0.2,0,0.2H29.4z
		 M29.3,32.9c-0.2,0-0.4,0-0.4,0.2c0,0.1,0.1,0.2,0.2,0.2c0.1,0,0.2-0.1,0.2-0.2c0,0,0,0,0-0.1V32.9z"/>
	<path class="st2" d="M29.7,33.7c0-0.1,0.1-0.3,0.1-0.5l0.2,0c0,0.2-0.1,0.4-0.2,0.5L29.7,33.7z"/>
	<path class="st2" d="M30.8,33c0,0.2,0.2,0.3,0.3,0.3c0.1,0,0.2,0,0.3-0.1l0,0.1c-0.1,0-0.2,0.1-0.3,0.1c-0.3,0-0.5-0.2-0.5-0.5
		s0.2-0.5,0.5-0.5c0.3,0,0.4,0.3,0.4,0.5c0,0,0,0.1,0,0.1H30.8z M31.3,32.9c0-0.1,0-0.3-0.3-0.3c-0.2,0-0.3,0.2-0.3,0.3H31.3z"/>
	<path class="st2" d="M31.9,32.2v0.3h0.3v0.1h-0.3v0.5c0,0.1,0,0.2,0.1,0.2c0,0,0.1,0,0.1,0l0,0.1c0,0-0.1,0-0.2,0
		c-0.1,0-0.2,0-0.2-0.1c-0.1-0.1-0.1-0.1-0.1-0.3v-0.5h-0.2v-0.1h0.2v-0.2L31.9,32.2z"/>
	<path class="st2" d="M32.8,32.8c0-0.1,0-0.2,0-0.3H33l0,0.2h0c0.1-0.1,0.2-0.2,0.4-0.2c0.2,0,0.4,0.2,0.4,0.5
		c0,0.4-0.2,0.5-0.5,0.5c-0.1,0-0.2-0.1-0.3-0.2h0v0.5h-0.2V32.8z M33,33C33,33.1,33,33.1,33,33c0,0.2,0.2,0.3,0.3,0.3
		c0.2,0,0.3-0.2,0.3-0.4c0-0.2-0.1-0.4-0.3-0.4c-0.1,0-0.2,0.1-0.3,0.2c0,0,0,0,0,0.1V33z"/>
	<path class="st2" d="M34.9,33.2c0,0.1,0,0.2,0,0.3h-0.2l0-0.2h0c0,0.1-0.2,0.2-0.3,0.2c-0.2,0-0.3-0.1-0.3-0.4v-0.6h0.2V33
		c0,0.2,0.1,0.3,0.2,0.3c0.1,0,0.2-0.1,0.2-0.2c0,0,0-0.1,0-0.1v-0.6h0.2V33.2z"/>
	<path class="st2" d="M35.2,32h0.2v1.5h-0.2V32z"/>
	<path class="st2" d="M35.7,32.4l0.2,0.6c0,0.1,0.1,0.2,0.1,0.3h0c0-0.1,0.1-0.2,0.1-0.3l0.2-0.6h0.2l-0.4,1h-0.2l-0.4-1H35.7z"/>
	<path class="st2" d="M36.8,32.2c0,0.1,0,0.1-0.1,0.1c-0.1,0-0.1,0-0.1-0.1c0-0.1,0-0.1,0.1-0.1C36.8,32,36.8,32.1,36.8,32.2z
		 M36.6,33.5v-1h0.2v1H36.6z"/>
	<path class="st2" d="M37.1,32.7c0-0.1,0-0.2,0-0.3h0.2l0,0.2h0c0-0.1,0.2-0.2,0.3-0.2c0.1,0,0.4,0.1,0.4,0.4v0.6h-0.2v-0.6
		c0-0.2-0.1-0.3-0.2-0.3c-0.1,0-0.2,0.1-0.2,0.2c0,0,0,0.1,0,0.1v0.6h-0.2V32.7z"/>
	<path class="st2" d="M38.8,33.5l0-0.1h0c-0.1,0.1-0.2,0.1-0.3,0.1c-0.2,0-0.3-0.1-0.3-0.3c0-0.2,0.2-0.4,0.6-0.4v0
		c0-0.1,0-0.2-0.2-0.2c-0.1,0-0.2,0-0.3,0.1l0-0.1c0.1-0.1,0.2-0.1,0.3-0.1c0.3,0,0.4,0.2,0.4,0.4v0.4c0,0.1,0,0.2,0,0.2H38.8z
		 M38.8,32.9c-0.2,0-0.4,0-0.4,0.2c0,0.1,0.1,0.2,0.2,0.2c0.1,0,0.2-0.1,0.2-0.2c0,0,0,0,0-0.1V32.9z"/>
	<path class="st2" d="M39.3,32.8c0-0.1,0-0.2,0-0.3h0.2l0,0.2h0c0-0.1,0.2-0.2,0.3-0.2c0,0,0,0,0.1,0v0.2c0,0,0,0-0.1,0
		c-0.1,0-0.2,0.1-0.2,0.2c0,0,0,0.1,0,0.1v0.5h-0.2V32.8z"/>
	<path class="st2" d="M41.3,32v1.2c0,0.1,0,0.2,0,0.3h-0.2l0-0.2h0c-0.1,0.1-0.2,0.2-0.3,0.2c-0.2,0-0.4-0.2-0.4-0.5
		c0-0.3,0.2-0.5,0.5-0.5c0.2,0,0.3,0.1,0.3,0.2h0V32H41.3z M41.1,32.9C41.1,32.8,41.1,32.8,41.1,32.9c0-0.2-0.1-0.3-0.3-0.3
		c-0.2,0-0.3,0.2-0.3,0.4c0,0.2,0.1,0.4,0.3,0.4c0.1,0,0.2-0.1,0.3-0.2c0,0,0,0,0-0.1V32.9z"/>
	<path class="st2" d="M42.5,32.9c0,0.4-0.3,0.5-0.5,0.5c-0.3,0-0.5-0.2-0.5-0.5c0-0.3,0.2-0.5,0.5-0.5
		C42.3,32.4,42.5,32.6,42.5,32.9z M41.7,33c0,0.2,0.1,0.4,0.3,0.4c0.2,0,0.3-0.2,0.3-0.4c0-0.2-0.1-0.4-0.3-0.4
		C41.8,32.6,41.7,32.8,41.7,33z"/>
	<path class="st2" d="M42.7,32h0.2v1.5h-0.2V32z"/>
	<path class="st2" d="M44.1,32.9c0,0.4-0.3,0.5-0.5,0.5c-0.3,0-0.5-0.2-0.5-0.5c0-0.3,0.2-0.5,0.5-0.5
		C43.9,32.4,44.1,32.6,44.1,32.9z M43.3,33c0,0.2,0.1,0.4,0.3,0.4c0.2,0,0.3-0.2,0.3-0.4c0-0.2-0.1-0.4-0.3-0.4
		C43.4,32.6,43.3,32.8,43.3,33z"/>
	<path class="st2" d="M44.3,32.8c0-0.1,0-0.2,0-0.3h0.2l0,0.2h0c0-0.1,0.2-0.2,0.3-0.2c0,0,0,0,0.1,0v0.2c0,0,0,0-0.1,0
		c-0.1,0-0.2,0.1-0.2,0.2c0,0,0,0.1,0,0.1v0.5h-0.2V32.8z"/>
	<path class="st2" d="M46,33.5l0-0.1h0c-0.1,0.1-0.2,0.1-0.3,0.1c-0.2,0-0.3-0.1-0.3-0.3c0-0.2,0.2-0.4,0.6-0.4v0
		c0-0.1,0-0.2-0.2-0.2c-0.1,0-0.2,0-0.3,0.1l0-0.1c0.1-0.1,0.2-0.1,0.3-0.1c0.3,0,0.4,0.2,0.4,0.4v0.4c0,0.1,0,0.2,0,0.2H46z
		 M46,32.9c-0.2,0-0.4,0-0.4,0.2c0,0.1,0.1,0.2,0.2,0.2c0.1,0,0.2-0.1,0.2-0.2c0,0,0,0,0-0.1V32.9z"/>
	<path class="st2" d="M47.3,33.2c0,0.1,0,0.2,0,0.3h-0.2l0-0.2h0c0,0.1-0.2,0.2-0.3,0.2c-0.2,0-0.3-0.1-0.3-0.4v-0.6h0.2V33
		c0,0.2,0.1,0.3,0.2,0.3c0.1,0,0.2-0.1,0.2-0.2c0,0,0-0.1,0-0.1v-0.6h0.2V33.2z"/>
	<path class="st2" d="M48.3,33.4c0,0-0.2,0.1-0.3,0.1c-0.3,0-0.5-0.2-0.5-0.5c0-0.3,0.2-0.5,0.5-0.5c0.1,0,0.2,0,0.3,0.1l0,0.1
		c0,0-0.1,0-0.2,0c-0.2,0-0.4,0.2-0.4,0.4c0,0.2,0.1,0.4,0.3,0.4c0.1,0,0.2,0,0.2-0.1L48.3,33.4z"/>
	<path class="st2" d="M48.7,32.2v0.3H49v0.1h-0.3v0.5c0,0.1,0,0.2,0.1,0.2c0,0,0.1,0,0.1,0l0,0.1c0,0-0.1,0-0.2,0
		c-0.1,0-0.2,0-0.2-0.1c-0.1-0.1-0.1-0.1-0.1-0.3v-0.5h-0.2v-0.1h0.2v-0.2L48.7,32.2z"/>
	<path class="st2" d="M50.1,32.9c0,0.4-0.3,0.5-0.5,0.5c-0.3,0-0.5-0.2-0.5-0.5c0-0.3,0.2-0.5,0.5-0.5
		C49.9,32.4,50.1,32.6,50.1,32.9z M49.3,33c0,0.2,0.1,0.4,0.3,0.4c0.2,0,0.3-0.2,0.3-0.4c0-0.2-0.1-0.4-0.3-0.4
		C49.4,32.6,49.3,32.8,49.3,33z"/>
	<path class="st2" d="M50.3,32.8c0-0.1,0-0.2,0-0.3h0.2l0,0.2h0c0-0.1,0.2-0.2,0.3-0.2c0,0,0,0,0.1,0v0.2c0,0,0,0-0.1,0
		c-0.1,0-0.2,0.1-0.2,0.2c0,0,0,0.1,0,0.1v0.5h-0.2V32.8z"/>
	<path class="st2" d="M50.9,33.3c0-0.1,0.1-0.1,0.1-0.1s0.1,0.1,0.1,0.1c0,0.1,0,0.1-0.1,0.1C50.9,33.5,50.9,33.4,50.9,33.3z"/>
	<path class="st2" d="M24.6,35.9l-0.5-1.4h0.2l0.2,0.7c0.1,0.2,0.1,0.4,0.1,0.5h0c0-0.2,0.1-0.3,0.2-0.5l0.2-0.7h0.2l-0.5,1.4H24.6z
		"/>
	<path class="st2" d="M25.5,35.5c0,0.2,0.2,0.3,0.3,0.3c0.1,0,0.2,0,0.3-0.1l0,0.1c-0.1,0-0.2,0.1-0.3,0.1c-0.3,0-0.5-0.2-0.5-0.5
		s0.2-0.5,0.5-0.5c0.3,0,0.4,0.3,0.4,0.5c0,0,0,0.1,0,0.1H25.5z M26,35.3c0-0.1,0-0.3-0.3-0.3c-0.2,0-0.3,0.2-0.3,0.3H26z"/>
	<path class="st2" d="M26.4,35.7c0.1,0,0.1,0.1,0.2,0.1c0.1,0,0.2-0.1,0.2-0.1c0-0.1-0.1-0.1-0.2-0.2c-0.2-0.1-0.3-0.2-0.3-0.3
		c0-0.2,0.1-0.3,0.3-0.3c0.1,0,0.2,0,0.2,0.1l0,0.1c0,0-0.1-0.1-0.2-0.1c-0.1,0-0.2,0.1-0.2,0.1c0,0.1,0.1,0.1,0.2,0.2
		c0.2,0.1,0.3,0.2,0.3,0.3c0,0.2-0.1,0.3-0.4,0.3c-0.1,0-0.2,0-0.3-0.1L26.4,35.7z"/>
	<path class="st2" d="M27.4,34.6v0.3h0.3v0.1h-0.3v0.5c0,0.1,0,0.2,0.1,0.2c0,0,0.1,0,0.1,0l0,0.1c0,0-0.1,0-0.2,0
		c-0.1,0-0.2,0-0.2-0.1c-0.1-0.1-0.1-0.1-0.1-0.3v-0.5h-0.2v-0.1h0.2v-0.2L27.4,34.6z"/>
	<path class="st2" d="M28.1,34.6c0,0.1,0,0.1-0.1,0.1c-0.1,0-0.1,0-0.1-0.1c0-0.1,0-0.1,0.1-0.1C28.1,34.5,28.1,34.6,28.1,34.6z
		 M27.9,35.9v-1h0.2v1H27.9z"/>
	<path class="st2" d="M28.4,35.9c0-0.1,0-0.2,0-0.3v-1.2h0.2v0.6h0c0.1-0.1,0.2-0.2,0.3-0.2c0.2,0,0.4,0.2,0.4,0.5
		c0,0.4-0.2,0.5-0.5,0.5c-0.1,0-0.3-0.1-0.3-0.2h0l0,0.2H28.4z M28.6,35.5C28.6,35.6,28.6,35.6,28.6,35.5c0,0.2,0.1,0.3,0.3,0.3
		c0.2,0,0.3-0.2,0.3-0.4c0-0.2-0.1-0.4-0.3-0.4c-0.1,0-0.2,0.1-0.3,0.2c0,0,0,0,0,0.1V35.5z"/>
	<path class="st2" d="M30.4,35.7c0,0.1,0,0.2,0,0.3h-0.2l0-0.2h0c0,0.1-0.2,0.2-0.3,0.2c-0.2,0-0.3-0.1-0.3-0.4v-0.6h0.2v0.6
		c0,0.2,0.1,0.3,0.2,0.3c0.1,0,0.2-0.1,0.2-0.2c0,0,0-0.1,0-0.1v-0.6h0.2V35.7z"/>
	<path class="st2" d="M30.7,34.5h0.2v1.5h-0.2V34.5z"/>
	<path class="st2" d="M32,35.7c0,0.1,0,0.2,0,0.3h-0.2l0-0.2h0c0,0.1-0.2,0.2-0.3,0.2c-0.2,0-0.3-0.1-0.3-0.4v-0.6h0.2v0.6
		c0,0.2,0.1,0.3,0.2,0.3c0.1,0,0.2-0.1,0.2-0.2c0,0,0-0.1,0-0.1v-0.6H32V35.7z"/>
	<path class="st2" d="M32.3,35.2c0-0.1,0-0.2,0-0.3h0.2l0,0.2h0c0.1-0.1,0.1-0.2,0.3-0.2c0.1,0,0.2,0.1,0.3,0.2h0
		c0-0.1,0.1-0.1,0.1-0.1c0.1,0,0.1-0.1,0.2-0.1c0.1,0,0.3,0.1,0.3,0.4v0.6h-0.2v-0.6c0-0.2-0.1-0.3-0.2-0.3c-0.1,0-0.2,0.1-0.2,0.2
		c0,0,0,0.1,0,0.1v0.6H33v-0.6c0-0.2-0.1-0.3-0.2-0.3c-0.1,0-0.2,0.1-0.2,0.2c0,0,0,0.1,0,0.1v0.6h-0.2V35.2z"/>
	<path class="st2" d="M34.5,34.5h0.2v1.5h-0.2V34.5z"/>
	<path class="st2" d="M35.9,35.4c0,0.4-0.3,0.5-0.5,0.5c-0.3,0-0.5-0.2-0.5-0.5c0-0.3,0.2-0.5,0.5-0.5
		C35.7,34.9,35.9,35.1,35.9,35.4z M35.1,35.4c0,0.2,0.1,0.4,0.3,0.4c0.2,0,0.3-0.2,0.3-0.4c0-0.2-0.1-0.4-0.3-0.4
		C35.2,35,35.1,35.2,35.1,35.4z"/>
	<path class="st2" d="M36.1,35.2c0-0.1,0-0.2,0-0.3h0.2l0,0.2h0c0-0.1,0.2-0.2,0.3-0.2c0,0,0,0,0.1,0v0.2c0,0,0,0-0.1,0
		c-0.1,0-0.2,0.1-0.2,0.2c0,0,0,0.1,0,0.1v0.5h-0.2V35.2z"/>
	<path class="st2" d="M36.9,35.5c0,0.2,0.2,0.3,0.3,0.3c0.1,0,0.2,0,0.3-0.1l0,0.1c-0.1,0-0.2,0.1-0.3,0.1c-0.3,0-0.5-0.2-0.5-0.5
		s0.2-0.5,0.5-0.5c0.3,0,0.4,0.3,0.4,0.5c0,0,0,0.1,0,0.1H36.9z M37.4,35.3c0-0.1,0-0.3-0.3-0.3c-0.2,0-0.3,0.2-0.3,0.3H37.4z"/>
	<path class="st2" d="M37.8,35.2c0-0.1,0-0.2,0-0.3H38l0,0.2h0c0.1-0.1,0.1-0.2,0.3-0.2c0.1,0,0.2,0.1,0.3,0.2h0
		c0-0.1,0.1-0.1,0.1-0.1c0.1,0,0.1-0.1,0.2-0.1c0.1,0,0.3,0.1,0.3,0.4v0.6h-0.2v-0.6c0-0.2-0.1-0.3-0.2-0.3c-0.1,0-0.2,0.1-0.2,0.2
		c0,0,0,0.1,0,0.1v0.6h-0.2v-0.6c0-0.2-0.1-0.3-0.2-0.3c-0.1,0-0.2,0.1-0.2,0.2c0,0,0,0.1,0,0.1v0.6h-0.2V35.2z"/>
	<path class="st2" d="M40,34.5h0.2v1.5H40V34.5z"/>
	<path class="st2" d="M40.6,35.5c0,0.2,0.2,0.3,0.3,0.3c0.1,0,0.2,0,0.3-0.1l0,0.1c-0.1,0-0.2,0.1-0.3,0.1c-0.3,0-0.5-0.2-0.5-0.5
		s0.2-0.5,0.5-0.5c0.3,0,0.4,0.3,0.4,0.5c0,0,0,0.1,0,0.1H40.6z M41.1,35.3c0-0.1,0-0.3-0.3-0.3c-0.2,0-0.3,0.2-0.3,0.3H41.1z"/>
	<path class="st2" d="M42.2,35.9c0,0-0.2,0.1-0.3,0.1c-0.3,0-0.5-0.2-0.5-0.5c0-0.3,0.2-0.5,0.5-0.5c0.1,0,0.2,0,0.3,0.1l0,0.1
		c0,0-0.1,0-0.2,0c-0.2,0-0.4,0.2-0.4,0.4c0,0.2,0.1,0.4,0.3,0.4c0.1,0,0.2,0,0.2-0.1L42.2,35.9z"/>
	<path class="st2" d="M42.7,34.6v0.3h0.3v0.1h-0.3v0.5c0,0.1,0,0.2,0.1,0.2c0,0,0.1,0,0.1,0l0,0.1c0,0-0.1,0-0.2,0
		c-0.1,0-0.2,0-0.2-0.1c-0.1-0.1-0.1-0.1-0.1-0.3v-0.5h-0.2v-0.1h0.2v-0.2L42.7,34.6z"/>
	<path class="st2" d="M44,35.7c0,0.1,0,0.2,0,0.3h-0.2l0-0.2h0c0,0.1-0.2,0.2-0.3,0.2c-0.2,0-0.3-0.1-0.3-0.4v-0.6h0.2v0.6
		c0,0.2,0.1,0.3,0.2,0.3c0.1,0,0.2-0.1,0.2-0.2c0,0,0-0.1,0-0.1v-0.6H44V35.7z"/>
	<path class="st2" d="M44.3,35.7c0.1,0,0.1,0.1,0.2,0.1c0.1,0,0.2-0.1,0.2-0.1c0-0.1-0.1-0.1-0.2-0.2c-0.2-0.1-0.3-0.2-0.3-0.3
		c0-0.2,0.1-0.3,0.3-0.3c0.1,0,0.2,0,0.2,0.1l0,0.1c0,0-0.1-0.1-0.2-0.1c-0.1,0-0.2,0.1-0.2,0.1c0,0.1,0.1,0.1,0.2,0.2
		c0.2,0.1,0.3,0.2,0.3,0.3c0,0.2-0.1,0.3-0.4,0.3c-0.1,0-0.2,0-0.3-0.1L44.3,35.7z"/>
	<path class="st2" d="M45,36.2c0-0.1,0.1-0.3,0.1-0.5l0.2,0c0,0.2-0.1,0.4-0.2,0.5L45,36.2z"/>
	<path class="st2" d="M46.2,34.6v0.3h0.3v0.1h-0.3v0.5c0,0.1,0,0.2,0.1,0.2c0,0,0.1,0,0.1,0l0,0.1c0,0-0.1,0-0.2,0
		c-0.1,0-0.2,0-0.2-0.1C46,35.8,46,35.7,46,35.6v-0.5h-0.2v-0.1H46v-0.2L46.2,34.6z"/>
	<path class="st2" d="M46.7,35.5c0,0.2,0.2,0.3,0.3,0.3c0.1,0,0.2,0,0.3-0.1l0,0.1c-0.1,0-0.2,0.1-0.3,0.1c-0.3,0-0.5-0.2-0.5-0.5
		s0.2-0.5,0.5-0.5c0.3,0,0.4,0.3,0.4,0.5c0,0,0,0.1,0,0.1H46.7z M47.3,35.3c0-0.1,0-0.3-0.3-0.3c-0.2,0-0.3,0.2-0.3,0.3H47.3z"/>
	<path class="st2" d="M47.7,35.2c0-0.1,0-0.2,0-0.3h0.2l0,0.2h0c0.1-0.1,0.1-0.2,0.3-0.2c0.1,0,0.2,0.1,0.3,0.2h0
		c0-0.1,0.1-0.1,0.1-0.1c0.1,0,0.1-0.1,0.2-0.1c0.1,0,0.3,0.1,0.3,0.4v0.6h-0.2v-0.6c0-0.2-0.1-0.3-0.2-0.3c-0.1,0-0.2,0.1-0.2,0.2
		c0,0,0,0.1,0,0.1v0.6h-0.2v-0.6c0-0.2-0.1-0.3-0.2-0.3c-0.1,0-0.2,0.1-0.2,0.2c0,0,0,0.1,0,0.1v0.6h-0.2V35.2z"/>
	<path class="st2" d="M49.4,35.3c0-0.1,0-0.2,0-0.3h0.2l0,0.2h0c0.1-0.1,0.2-0.2,0.4-0.2c0.2,0,0.4,0.2,0.4,0.5
		c0,0.4-0.2,0.5-0.5,0.5c-0.1,0-0.2-0.1-0.3-0.2h0v0.5h-0.2V35.3z M49.6,35.5C49.6,35.6,49.6,35.6,49.6,35.5c0,0.2,0.2,0.3,0.3,0.3
		c0.2,0,0.3-0.2,0.3-0.4c0-0.2-0.1-0.4-0.3-0.4c-0.1,0-0.2,0.1-0.3,0.2c0,0,0,0,0,0.1V35.5z"/>
	<path class="st2" d="M51.4,35.7c0,0.1,0,0.2,0,0.3h-0.2l0-0.2h0c0,0.1-0.2,0.2-0.3,0.2c-0.2,0-0.3-0.1-0.3-0.4v-0.6h0.2v0.6
		c0,0.2,0.1,0.3,0.2,0.3c0.1,0,0.2-0.1,0.2-0.2c0,0,0-0.1,0-0.1v-0.6h0.2V35.7z"/>
	<path class="st2" d="M51.7,35.7c0.1,0,0.1,0.1,0.2,0.1c0.1,0,0.2-0.1,0.2-0.1c0-0.1-0.1-0.1-0.2-0.2c-0.2-0.1-0.3-0.2-0.3-0.3
		c0-0.2,0.1-0.3,0.3-0.3c0.1,0,0.2,0,0.2,0.1l0,0.1c0,0-0.1-0.1-0.2-0.1c-0.1,0-0.2,0.1-0.2,0.1c0,0.1,0.1,0.1,0.2,0.2
		c0.2,0.1,0.3,0.2,0.3,0.3c0,0.2-0.1,0.3-0.4,0.3c-0.1,0-0.2,0-0.3-0.1L51.7,35.7z"/>
	<path class="st2" d="M53,35.2c0-0.1,0-0.2,0-0.3h0.2l0,0.2h0c0-0.1,0.2-0.2,0.3-0.2c0.1,0,0.4,0.1,0.4,0.4v0.6h-0.2v-0.6
		c0-0.2-0.1-0.3-0.2-0.3c-0.1,0-0.2,0.1-0.2,0.2c0,0,0,0.1,0,0.1v0.6H53V35.2z"/>
	<path class="st2" d="M55,35.4c0,0.4-0.3,0.5-0.5,0.5c-0.3,0-0.5-0.2-0.5-0.5c0-0.3,0.2-0.5,0.5-0.5C54.8,34.9,55,35.1,55,35.4z
		 M54.2,35.4c0,0.2,0.1,0.4,0.3,0.4c0.2,0,0.3-0.2,0.3-0.4c0-0.2-0.1-0.4-0.3-0.4C54.3,35,54.2,35.2,54.2,35.4z"/>
	<path class="st2" d="M55.3,35.2c0-0.1,0-0.2,0-0.3h0.2l0,0.2h0c0-0.1,0.2-0.2,0.3-0.2c0.1,0,0.4,0.1,0.4,0.4v0.6h-0.2v-0.6
		c0-0.2-0.1-0.3-0.2-0.3c-0.1,0-0.2,0.1-0.2,0.2c0,0,0,0.1,0,0.1v0.6h-0.2V35.2z"/>
	<path class="st2" d="M24.3,38.4c0-0.1,0-0.2,0-0.3v-1.2h0.2v0.6h0c0.1-0.1,0.2-0.2,0.3-0.2c0.2,0,0.4,0.2,0.4,0.5
		c0,0.4-0.2,0.5-0.5,0.5c-0.1,0-0.3-0.1-0.3-0.2h0l0,0.2H24.3z M24.5,38C24.5,38,24.5,38.1,24.5,38c0,0.2,0.1,0.3,0.3,0.3
		c0.2,0,0.3-0.2,0.3-0.4c0-0.2-0.1-0.4-0.3-0.4c-0.1,0-0.2,0.1-0.3,0.2c0,0,0,0,0,0.1V38z"/>
	<path class="st2" d="M25.7,37.1c0,0.1,0,0.1-0.1,0.1c-0.1,0-0.1,0-0.1-0.1c0-0.1,0-0.1,0.1-0.1C25.6,37,25.7,37.1,25.7,37.1z
		 M25.5,38.4v-1h0.2v1H25.5z"/>
	<path class="st2" d="M25.9,38.4c0-0.1,0-0.2,0-0.3v-1.2h0.2v0.6h0c0.1-0.1,0.2-0.2,0.3-0.2c0.2,0,0.4,0.2,0.4,0.5
		c0,0.4-0.2,0.5-0.5,0.5c-0.1,0-0.3-0.1-0.3-0.2h0l0,0.2H25.9z M26.1,38C26.1,38,26.1,38.1,26.1,38c0,0.2,0.1,0.3,0.3,0.3
		c0.2,0,0.3-0.2,0.3-0.4c0-0.2-0.1-0.4-0.3-0.4c-0.1,0-0.2,0.1-0.3,0.2c0,0,0,0,0,0.1V38z"/>
	<path class="st2" d="M27.2,37.9c0,0.2,0.2,0.3,0.3,0.3c0.1,0,0.2,0,0.3-0.1l0,0.1c-0.1,0-0.2,0.1-0.3,0.1c-0.3,0-0.5-0.2-0.5-0.5
		c0-0.3,0.2-0.5,0.5-0.5c0.3,0,0.4,0.3,0.4,0.5c0,0,0,0.1,0,0.1H27.2z M27.8,37.8c0-0.1,0-0.3-0.3-0.3c-0.2,0-0.3,0.2-0.3,0.3H27.8z
		"/>
	<path class="st2" d="M28.2,37.7c0-0.1,0-0.2,0-0.3h0.2l0,0.2h0c0-0.1,0.2-0.2,0.3-0.2c0.1,0,0.4,0.1,0.4,0.4v0.6h-0.2v-0.6
		c0-0.2-0.1-0.3-0.2-0.3c-0.1,0-0.2,0.1-0.2,0.2c0,0,0,0.1,0,0.1v0.6h-0.2V37.7z"/>
	<path class="st2" d="M30.2,36.9v1.2c0,0.1,0,0.2,0,0.3H30l0-0.2h0c-0.1,0.1-0.2,0.2-0.3,0.2c-0.2,0-0.4-0.2-0.4-0.5
		c0-0.3,0.2-0.5,0.5-0.5c0.2,0,0.3,0.1,0.3,0.2h0v-0.6H30.2z M30,37.8C30,37.8,30,37.8,30,37.8c0-0.2-0.1-0.3-0.3-0.3
		c-0.2,0-0.3,0.2-0.3,0.4c0,0.2,0.1,0.4,0.3,0.4c0.1,0,0.2-0.1,0.3-0.2c0,0,0,0,0-0.1V37.8z"/>
	<path class="st2" d="M31.3,38.1c0,0.1,0,0.2,0,0.3h-0.2l0-0.2h0c0,0.1-0.2,0.2-0.3,0.2c-0.2,0-0.3-0.1-0.3-0.4v-0.6h0.2V38
		c0,0.2,0.1,0.3,0.2,0.3c0.1,0,0.2-0.1,0.2-0.2c0,0,0-0.1,0-0.1v-0.6h0.2V38.1z"/>
	<path class="st2" d="M31.6,37.7c0-0.1,0-0.2,0-0.3h0.2l0,0.2h0c0.1-0.1,0.1-0.2,0.3-0.2c0.1,0,0.2,0.1,0.3,0.2h0
		c0-0.1,0.1-0.1,0.1-0.1c0.1,0,0.1-0.1,0.2-0.1c0.1,0,0.3,0.1,0.3,0.4v0.6h-0.2v-0.6c0-0.2-0.1-0.3-0.2-0.3c-0.1,0-0.2,0.1-0.2,0.2
		c0,0,0,0.1,0,0.1v0.6h-0.2v-0.6c0-0.2-0.1-0.3-0.2-0.3c-0.1,0-0.2,0.1-0.2,0.2c0,0,0,0.1,0,0.1v0.6h-0.2V37.7z"/>
	<path class="st2" d="M34.3,38.4l0-0.1h0c-0.1,0.1-0.2,0.1-0.3,0.1c-0.2,0-0.3-0.1-0.3-0.3c0-0.2,0.2-0.4,0.6-0.4v0
		c0-0.1,0-0.2-0.2-0.2c-0.1,0-0.2,0-0.3,0.1l0-0.1c0.1-0.1,0.2-0.1,0.3-0.1c0.3,0,0.4,0.2,0.4,0.4v0.4c0,0.1,0,0.2,0,0.2H34.3z
		 M34.3,37.9c-0.2,0-0.4,0-0.4,0.2c0,0.1,0.1,0.2,0.2,0.2c0.1,0,0.2-0.1,0.2-0.2c0,0,0,0,0-0.1V37.9z"/>
	<path class="st2" d="M35.5,38.4c0,0-0.2,0.1-0.3,0.1c-0.3,0-0.5-0.2-0.5-0.5c0-0.3,0.2-0.5,0.5-0.5c0.1,0,0.2,0,0.3,0.1l0,0.1
		c0,0-0.1,0-0.2,0c-0.2,0-0.4,0.2-0.4,0.4c0,0.2,0.1,0.4,0.3,0.4c0.1,0,0.2,0,0.2,0L35.5,38.4z"/>
	<path class="st2" d="M35.6,38.7c0-0.1,0.1-0.3,0.1-0.5l0.2,0c0,0.2-0.1,0.4-0.2,0.5L35.6,38.7z"/>
	<path class="st2" d="M36.8,37.1v0.3H37v0.1h-0.3v0.5c0,0.1,0,0.2,0.1,0.2c0,0,0.1,0,0.1,0l0,0.1c0,0-0.1,0-0.2,0
		c-0.1,0-0.2,0-0.2-0.1c-0.1-0.1-0.1-0.1-0.1-0.3v-0.5h-0.2v-0.1h0.2v-0.2L36.8,37.1z"/>
	<path class="st2" d="M37.2,37.7c0-0.1,0-0.2,0-0.3h0.2l0,0.2h0c0-0.1,0.2-0.2,0.3-0.2c0,0,0,0,0.1,0v0.2c0,0,0,0-0.1,0
		c-0.1,0-0.2,0.1-0.2,0.2c0,0,0,0.1,0,0.1v0.5h-0.2V37.7z"/>
	<path class="st2" d="M38.1,37.1c0,0.1,0,0.1-0.1,0.1c-0.1,0-0.1,0-0.1-0.1c0-0.1,0-0.1,0.1-0.1C38.1,37,38.1,37.1,38.1,37.1z
		 M37.9,38.4v-1h0.2v1H37.9z"/>
	<path class="st2" d="M38.4,38.2c0.1,0,0.1,0.1,0.2,0.1c0.1,0,0.2-0.1,0.2-0.1c0-0.1-0.1-0.1-0.2-0.2c-0.2-0.1-0.3-0.2-0.3-0.3
		c0-0.2,0.1-0.3,0.3-0.3c0.1,0,0.2,0,0.2,0.1l0,0.1c0,0-0.1-0.1-0.2-0.1c-0.1,0-0.2,0.1-0.2,0.1c0,0.1,0.1,0.1,0.2,0.2
		c0.2,0.1,0.3,0.2,0.3,0.3c0,0.2-0.1,0.3-0.4,0.3c-0.1,0-0.2,0-0.3-0.1L38.4,38.2z"/>
	<path class="st2" d="M39.4,37.1v0.3h0.3v0.1h-0.3v0.5c0,0.1,0,0.2,0.1,0.2c0,0,0.1,0,0.1,0l0,0.1c0,0-0.1,0-0.2,0
		c-0.1,0-0.2,0-0.2-0.1c-0.1-0.1-0.1-0.1-0.1-0.3v-0.5h-0.2v-0.1h0.2v-0.2L39.4,37.1z"/>
	<path class="st2" d="M40.1,37.1c0,0.1,0,0.1-0.1,0.1c-0.1,0-0.1,0-0.1-0.1c0-0.1,0-0.1,0.1-0.1C40.1,37,40.1,37.1,40.1,37.1z
		 M39.9,38.4v-1h0.2v1H39.9z"/>
	<path class="st2" d="M41.1,38.3L41.1,38.3c-0.1,0.1-0.2,0.2-0.3,0.2c-0.2,0-0.4-0.2-0.4-0.5c0-0.4,0.2-0.5,0.5-0.5
		c0.2,0,0.3,0.1,0.3,0.2h0l0-0.2h0.2c0,0.1,0,0.2,0,0.3v1.1h-0.2V38.3z M41.1,37.8C41.1,37.8,41.1,37.8,41.1,37.8
		c0-0.2-0.1-0.3-0.3-0.3c-0.2,0-0.3,0.2-0.3,0.4c0,0.2,0.1,0.4,0.3,0.4c0.1,0,0.2-0.1,0.3-0.2c0,0,0-0.1,0-0.1V37.8z"/>
	<path class="st2" d="M42.4,38.1c0,0.1,0,0.2,0,0.3h-0.2l0-0.2h0c0,0.1-0.2,0.2-0.3,0.2c-0.2,0-0.3-0.1-0.3-0.4v-0.6h0.2V38
		c0,0.2,0.1,0.3,0.2,0.3c0.1,0,0.2-0.1,0.2-0.2c0,0,0-0.1,0-0.1v-0.6h0.2V38.1z"/>
	<path class="st2" d="M42.8,37.9c0,0.2,0.2,0.3,0.3,0.3c0.1,0,0.2,0,0.3-0.1l0,0.1c-0.1,0-0.2,0.1-0.3,0.1c-0.3,0-0.5-0.2-0.5-0.5
		c0-0.3,0.2-0.5,0.5-0.5c0.3,0,0.4,0.3,0.4,0.5c0,0,0,0.1,0,0.1H42.8z M43.3,37.8c0-0.1,0-0.3-0.3-0.3c-0.2,0-0.3,0.2-0.3,0.3H43.3z
		"/>
	<path class="st2" d="M44.3,37.9c0,0.2,0.2,0.3,0.3,0.3c0.1,0,0.2,0,0.3-0.1l0,0.1c-0.1,0-0.2,0.1-0.3,0.1c-0.3,0-0.5-0.2-0.5-0.5
		c0-0.3,0.2-0.5,0.5-0.5c0.3,0,0.4,0.3,0.4,0.5c0,0,0,0.1,0,0.1H44.3z M44.8,37.8c0-0.1,0-0.3-0.3-0.3c-0.2,0-0.3,0.2-0.3,0.3H44.8z
		"/>
	<path class="st2" d="M46.1,38.1c0,0.1,0,0.2,0,0.3h-0.2l0-0.2h0c0,0.1-0.2,0.2-0.3,0.2c-0.2,0-0.3-0.1-0.3-0.4v-0.6h0.2V38
		c0,0.2,0.1,0.3,0.2,0.3c0.1,0,0.2-0.1,0.2-0.2c0,0,0-0.1,0-0.1v-0.6h0.2V38.1z"/>
	<path class="st2" d="M46.8,37.7c0-0.1,0-0.2,0-0.3h0.2l0,0.2h0c0.1-0.1,0.1-0.2,0.3-0.2c0.1,0,0.2,0.1,0.3,0.2h0
		c0-0.1,0.1-0.1,0.1-0.1c0.1,0,0.1-0.1,0.2-0.1c0.1,0,0.3,0.1,0.3,0.4v0.6H48v-0.6c0-0.2-0.1-0.3-0.2-0.3c-0.1,0-0.2,0.1-0.2,0.2
		c0,0,0,0.1,0,0.1v0.6h-0.2v-0.6c0-0.2-0.1-0.3-0.2-0.3c-0.1,0-0.2,0.1-0.2,0.2c0,0,0,0.1,0,0.1v0.6h-0.2V37.7z"/>
	<path class="st2" d="M49.1,38.4l0-0.1h0c-0.1,0.1-0.2,0.1-0.3,0.1c-0.2,0-0.3-0.1-0.3-0.3c0-0.2,0.2-0.4,0.6-0.4v0
		c0-0.1,0-0.2-0.2-0.2c-0.1,0-0.2,0-0.3,0.1l0-0.1c0.1-0.1,0.2-0.1,0.3-0.1c0.3,0,0.4,0.2,0.4,0.4v0.4c0,0.1,0,0.2,0,0.2H49.1z
		 M49,37.9c-0.2,0-0.4,0-0.4,0.2c0,0.1,0.1,0.2,0.2,0.2c0.1,0,0.2-0.1,0.2-0.2c0,0,0,0,0-0.1V37.9z"/>
	<path class="st2" d="M49.5,38.2c0.1,0,0.1,0.1,0.2,0.1c0.1,0,0.2-0.1,0.2-0.1c0-0.1-0.1-0.1-0.2-0.2c-0.2-0.1-0.3-0.2-0.3-0.3
		c0-0.2,0.1-0.3,0.3-0.3c0.1,0,0.2,0,0.2,0.1l0,0.1c0,0-0.1-0.1-0.2-0.1c-0.1,0-0.2,0.1-0.2,0.1c0,0.1,0.1,0.1,0.2,0.2
		c0.2,0.1,0.3,0.2,0.3,0.3c0,0.2-0.1,0.3-0.4,0.3c-0.1,0-0.2,0-0.3-0.1L49.5,38.2z"/>
	<path class="st2" d="M50.3,38.2c0.1,0,0.1,0.1,0.2,0.1c0.1,0,0.2-0.1,0.2-0.1c0-0.1-0.1-0.1-0.2-0.2c-0.2-0.1-0.3-0.2-0.3-0.3
		c0-0.2,0.1-0.3,0.3-0.3c0.1,0,0.2,0,0.2,0.1l0,0.1c0,0-0.1-0.1-0.2-0.1c-0.1,0-0.2,0.1-0.2,0.1c0,0.1,0.1,0.1,0.2,0.2
		c0.2,0.1,0.3,0.2,0.3,0.3c0,0.2-0.1,0.3-0.4,0.3c-0.1,0-0.2,0-0.3-0.1L50.3,38.2z"/>
	<path class="st2" d="M51.7,38.4l0-0.1h0c-0.1,0.1-0.2,0.1-0.3,0.1c-0.2,0-0.3-0.1-0.3-0.3c0-0.2,0.2-0.4,0.6-0.4v0
		c0-0.1,0-0.2-0.2-0.2c-0.1,0-0.2,0-0.3,0.1l0-0.1c0.1-0.1,0.2-0.1,0.3-0.1c0.3,0,0.4,0.2,0.4,0.4v0.4c0,0.1,0,0.2,0,0.2H51.7z
		 M51.7,37.9c-0.2,0-0.4,0-0.4,0.2c0,0.1,0.1,0.2,0.2,0.2c0.1,0,0.2-0.1,0.2-0.2c0,0,0,0,0-0.1V37.9z"/>
	<path class="st2" d="M52.1,38.3c0-0.1,0.1-0.1,0.1-0.1s0.1,0.1,0.1,0.1c0,0.1,0,0.1-0.1,0.1C52.2,38.4,52.1,38.4,52.1,38.3z"/>
	<path class="st2" d="M24.3,39.5c0.1,0,0.2,0,0.4,0c0.3,0,0.4,0.1,0.6,0.2c0.1,0.1,0.2,0.3,0.2,0.5c0,0.2-0.1,0.4-0.2,0.5
		c-0.1,0.1-0.3,0.2-0.6,0.2c-0.1,0-0.2,0-0.3,0V39.5z M24.5,40.8c0,0,0.1,0,0.2,0c0.4,0,0.6-0.2,0.6-0.6c0-0.3-0.2-0.5-0.6-0.5
		c-0.1,0-0.2,0-0.2,0V40.8z"/>
	<path class="st2" d="M26.6,40.4c0,0.4-0.3,0.5-0.5,0.5c-0.3,0-0.5-0.2-0.5-0.5c0-0.3,0.2-0.5,0.5-0.5
		C26.4,39.9,26.6,40.1,26.6,40.4z M25.8,40.4c0,0.2,0.1,0.4,0.3,0.4c0.2,0,0.3-0.2,0.3-0.4c0-0.2-0.1-0.4-0.3-0.4
		S25.8,40.2,25.8,40.4z"/>
	<path class="st2" d="M26.8,40.2c0-0.1,0-0.2,0-0.3H27l0,0.2h0c0-0.1,0.2-0.2,0.3-0.2c0.1,0,0.4,0.1,0.4,0.4v0.6h-0.2v-0.6
		c0-0.2-0.1-0.3-0.2-0.3c-0.1,0-0.2,0.1-0.2,0.2c0,0,0,0.1,0,0.1v0.6h-0.2V40.2z"/>
	<path class="st2" d="M28.1,40.4c0,0.2,0.2,0.3,0.3,0.3c0.1,0,0.2,0,0.3-0.1l0,0.1c-0.1,0-0.2,0.1-0.3,0.1c-0.3,0-0.5-0.2-0.5-0.5
		c0-0.3,0.2-0.5,0.5-0.5c0.3,0,0.4,0.3,0.4,0.5c0,0,0,0.1,0,0.1H28.1z M28.6,40.3c0-0.1,0-0.3-0.3-0.3c-0.2,0-0.3,0.2-0.3,0.3H28.6z
		"/>
	<path class="st2" d="M29.7,40.9c0,0-0.2,0.1-0.3,0.1c-0.3,0-0.5-0.2-0.5-0.5c0-0.3,0.2-0.5,0.5-0.5c0.1,0,0.2,0,0.3,0.1l0,0.1
		c0,0-0.1,0-0.2,0c-0.2,0-0.4,0.2-0.4,0.4c0,0.2,0.1,0.4,0.3,0.4c0.1,0,0.2,0,0.2,0L29.7,40.9z"/>
	<path class="st2" d="M30.6,39.6v0.3h0.3V40h-0.3v0.5c0,0.1,0,0.2,0.1,0.2c0,0,0.1,0,0.1,0l0,0.1c0,0-0.1,0-0.2,0
		c-0.1,0-0.2,0-0.2-0.1c-0.1-0.1-0.1-0.1-0.1-0.3V40h-0.2v-0.1h0.2v-0.2L30.6,39.6z"/>
	<path class="st2" d="M31.1,40.4c0,0.2,0.2,0.3,0.3,0.3c0.1,0,0.2,0,0.3-0.1l0,0.1c-0.1,0-0.2,0.1-0.3,0.1c-0.3,0-0.5-0.2-0.5-0.5
		c0-0.3,0.2-0.5,0.5-0.5c0.3,0,0.4,0.3,0.4,0.5c0,0,0,0.1,0,0.1H31.1z M31.7,40.3c0-0.1,0-0.3-0.3-0.3c-0.2,0-0.3,0.2-0.3,0.3H31.7z
		"/>
	<path class="st2" d="M32.1,39.4h0.2v1.5h-0.2V39.4z"/>
	<path class="st2" d="M32.6,39.4h0.2v1.5h-0.2V39.4z"/>
	<path class="st2" d="M33.9,40.6c0,0.1,0,0.2,0,0.3h-0.2l0-0.2h0c0,0.1-0.2,0.2-0.3,0.2c-0.2,0-0.3-0.1-0.3-0.4v-0.6h0.2v0.6
		c0,0.2,0.1,0.3,0.2,0.3c0.1,0,0.2-0.1,0.2-0.2c0,0,0-0.1,0-0.1v-0.6h0.2V40.6z"/>
	<path class="st2" d="M34.2,40.7c0.1,0,0.1,0.1,0.2,0.1c0.1,0,0.2-0.1,0.2-0.1c0-0.1-0.1-0.1-0.2-0.2c-0.2-0.1-0.3-0.2-0.3-0.3
		c0-0.2,0.1-0.3,0.3-0.3c0.1,0,0.2,0,0.2,0.1l0,0.1c0,0-0.1-0.1-0.2-0.1c-0.1,0-0.2,0.1-0.2,0.1c0,0.1,0.1,0.1,0.2,0.2
		c0.2,0.1,0.3,0.2,0.3,0.3c0,0.2-0.1,0.3-0.4,0.3c-0.1,0-0.2,0-0.3-0.1L34.2,40.7z"/>
	<path class="st2" d="M35.4,40.2c0-0.1,0-0.2,0-0.3h0.2l0,0.2h0c0.1-0.1,0.1-0.2,0.3-0.2c0.1,0,0.2,0.1,0.3,0.2h0
		c0-0.1,0.1-0.1,0.1-0.1c0.1,0,0.1-0.1,0.2-0.1c0.1,0,0.3,0.1,0.3,0.4v0.6h-0.2v-0.6c0-0.2-0.1-0.3-0.2-0.3c-0.1,0-0.2,0.1-0.2,0.2
		c0,0,0,0.1,0,0.1v0.6h-0.2v-0.6c0-0.2-0.1-0.3-0.2-0.3c-0.1,0-0.2,0.1-0.2,0.2c0,0,0,0.1,0,0.1v0.6h-0.2V40.2z"/>
	<path class="st2" d="M37.7,40.9l0-0.1h0c-0.1,0.1-0.2,0.1-0.3,0.1c-0.2,0-0.3-0.1-0.3-0.3c0-0.2,0.2-0.4,0.6-0.4v0
		c0-0.1,0-0.2-0.2-0.2c-0.1,0-0.2,0-0.3,0.1l0-0.1c0.1-0.1,0.2-0.1,0.3-0.1c0.3,0,0.4,0.2,0.4,0.4v0.4c0,0.1,0,0.2,0,0.2H37.7z
		 M37.7,40.4c-0.2,0-0.4,0-0.4,0.2c0,0.1,0.1,0.2,0.2,0.2c0.1,0,0.2-0.1,0.2-0.2c0,0,0,0,0-0.1V40.4z"/>
	<path class="st2" d="M39,39.9c0,0.1,0,0.2,0,0.3v0.6c0,0.2,0,0.4-0.1,0.5c-0.1,0.1-0.2,0.1-0.4,0.1c-0.1,0-0.3,0-0.3-0.1l0-0.1
		c0.1,0,0.2,0.1,0.3,0.1c0.2,0,0.3-0.1,0.3-0.4v-0.1h0c-0.1,0.1-0.2,0.2-0.3,0.2c-0.2,0-0.4-0.2-0.4-0.5c0-0.3,0.2-0.5,0.5-0.5
		c0.2,0,0.3,0.1,0.3,0.2h0l0-0.2H39z M38.8,40.3C38.8,40.3,38.8,40.2,38.8,40.3c0-0.2-0.1-0.3-0.3-0.3c-0.2,0-0.3,0.1-0.3,0.4
		c0,0.2,0.1,0.4,0.3,0.4c0.1,0,0.2-0.1,0.3-0.2c0,0,0-0.1,0-0.1V40.3z"/>
	<path class="st2" d="M39.3,40.2c0-0.1,0-0.2,0-0.3h0.2l0,0.2h0c0-0.1,0.2-0.2,0.3-0.2c0.1,0,0.4,0.1,0.4,0.4v0.6H40v-0.6
		c0-0.2-0.1-0.3-0.2-0.3c-0.1,0-0.2,0.1-0.2,0.2c0,0,0,0.1,0,0.1v0.6h-0.2V40.2z"/>
	<path class="st2" d="M41,40.9l0-0.1h0c-0.1,0.1-0.2,0.1-0.3,0.1c-0.2,0-0.3-0.1-0.3-0.3c0-0.2,0.2-0.4,0.6-0.4v0
		c0-0.1,0-0.2-0.2-0.2c-0.1,0-0.2,0-0.3,0.1l0-0.1c0.1-0.1,0.2-0.1,0.3-0.1c0.3,0,0.4,0.2,0.4,0.4v0.4c0,0.1,0,0.2,0,0.2H41z
		 M41,40.4c-0.2,0-0.4,0-0.4,0.2c0,0.1,0.1,0.2,0.2,0.2c0.1,0,0.2-0.1,0.2-0.2c0,0,0,0,0-0.1V40.4z"/>
	<path class="st2" d="M41.3,41.2c0-0.1,0.1-0.3,0.1-0.5l0.2,0c0,0.2-0.1,0.4-0.2,0.5L41.3,41.2z"/>
	<path class="st2" d="M42.3,40.9V40h-0.1v-0.1h0.1v0c0-0.1,0-0.3,0.1-0.4c0.1-0.1,0.2-0.1,0.2-0.1c0.1,0,0.1,0,0.2,0l0,0.1
		c0,0-0.1,0-0.1,0c-0.2,0-0.2,0.1-0.2,0.3v0.1h0.2V40h-0.2v0.9H42.3z"/>
	<path class="st2" d="M42.9,40.2c0-0.1,0-0.2,0-0.3h0.2l0,0.2h0c0-0.1,0.2-0.2,0.3-0.2c0,0,0,0,0.1,0v0.2c0,0,0,0-0.1,0
		c-0.1,0-0.2,0.1-0.2,0.2c0,0,0,0.1,0,0.1v0.5h-0.2V40.2z"/>
	<path class="st2" d="M43.8,39.6c0,0.1,0,0.1-0.1,0.1c-0.1,0-0.1,0-0.1-0.1c0-0.1,0-0.1,0.1-0.1C43.8,39.5,43.8,39.6,43.8,39.6z
		 M43.6,40.9v-1h0.2v1H43.6z"/>
	<path class="st2" d="M44.1,40.2c0-0.1,0-0.2,0-0.3h0.2l0,0.2h0c0-0.1,0.2-0.2,0.3-0.2c0.1,0,0.4,0.1,0.4,0.4v0.6h-0.2v-0.6
		c0-0.2-0.1-0.3-0.2-0.3c-0.1,0-0.2,0.1-0.2,0.2c0,0,0,0.1,0,0.1v0.6h-0.2V40.2z"/>
	<path class="st2" d="M46.1,39.9c0,0.1,0,0.2,0,0.3v0.6c0,0.2,0,0.4-0.1,0.5c-0.1,0.1-0.2,0.1-0.4,0.1c-0.1,0-0.3,0-0.3-0.1l0-0.1
		c0.1,0,0.2,0.1,0.3,0.1c0.2,0,0.3-0.1,0.3-0.4v-0.1h0c-0.1,0.1-0.2,0.2-0.3,0.2c-0.2,0-0.4-0.2-0.4-0.5c0-0.3,0.2-0.5,0.5-0.5
		c0.2,0,0.3,0.1,0.3,0.2h0l0-0.2H46.1z M45.9,40.3C45.9,40.3,45.9,40.2,45.9,40.3c0-0.2-0.1-0.3-0.3-0.3c-0.2,0-0.3,0.1-0.3,0.4
		c0,0.2,0.1,0.4,0.3,0.4c0.1,0,0.2-0.1,0.3-0.2c0,0,0-0.1,0-0.1V40.3z"/>
	<path class="st2" d="M46.6,39.6c0,0.1,0,0.1-0.1,0.1c-0.1,0-0.1,0-0.1-0.1c0-0.1,0-0.1,0.1-0.1C46.5,39.5,46.6,39.6,46.6,39.6z
		 M46.4,40.9v-1h0.2v1H46.4z"/>
	<path class="st2" d="M46.9,39.4h0.2v1.5h-0.2V39.4z"/>
	<path class="st2" d="M47.4,39.4h0.2v1.5h-0.2V39.4z"/>
	<path class="st2" d="M48.4,40.9l0-0.1h0c-0.1,0.1-0.2,0.1-0.3,0.1c-0.2,0-0.3-0.1-0.3-0.3c0-0.2,0.2-0.4,0.6-0.4v0
		c0-0.1,0-0.2-0.2-0.2c-0.1,0-0.2,0-0.3,0.1l0-0.1c0.1-0.1,0.2-0.1,0.3-0.1c0.3,0,0.4,0.2,0.4,0.4v0.4c0,0.1,0,0.2,0,0.2H48.4z
		 M48.4,40.4c-0.2,0-0.4,0-0.4,0.2c0,0.1,0.1,0.2,0.2,0.2c0.1,0,0.2-0.1,0.2-0.2c0,0,0,0,0-0.1V40.4z"/>
	<path class="st2" d="M49.5,39.6c0,0.1,0,0.1-0.1,0.1c-0.1,0-0.1,0-0.1-0.1c0-0.1,0-0.1,0.1-0.1C49.4,39.5,49.5,39.6,49.5,39.6z
		 M49.3,40.9v-1h0.2v1H49.3z"/>
	<path class="st2" d="M49.8,40.2c0-0.1,0-0.2,0-0.3h0.2l0,0.2h0c0-0.1,0.2-0.2,0.3-0.2c0.1,0,0.4,0.1,0.4,0.4v0.6h-0.2v-0.6
		c0-0.2-0.1-0.3-0.2-0.3c-0.1,0-0.2,0.1-0.2,0.2c0,0,0,0.1,0,0.1v0.6h-0.2V40.2z"/>
	<path class="st2" d="M51.5,40.4c0,0.2,0.2,0.3,0.3,0.3c0.1,0,0.2,0,0.3-0.1l0,0.1c-0.1,0-0.2,0.1-0.3,0.1c-0.3,0-0.5-0.2-0.5-0.5
		c0-0.3,0.2-0.5,0.5-0.5c0.3,0,0.4,0.3,0.4,0.5c0,0,0,0.1,0,0.1H51.5z M52,40.3c0-0.1,0-0.3-0.3-0.3c-0.2,0-0.3,0.2-0.3,0.3H52z"/>
	<path class="st2" d="M52.5,39.9l0.1,0.2c0,0.1,0.1,0.1,0.1,0.2h0c0-0.1,0.1-0.1,0.1-0.2l0.1-0.2h0.2l-0.3,0.5l0.4,0.5H53l-0.1-0.2
		c0-0.1-0.1-0.1-0.1-0.2h0c0,0.1-0.1,0.1-0.1,0.2l-0.1,0.2h-0.2l0.4-0.5l-0.3-0.5H52.5z"/>
	<path class="st2" d="M54.6,40.6c0,0.1,0,0.2,0,0.3h-0.2l0-0.2h0c0,0.1-0.2,0.2-0.3,0.2c-0.2,0-0.3-0.1-0.3-0.4v-0.6H54v0.6
		c0,0.2,0.1,0.3,0.2,0.3c0.1,0,0.2-0.1,0.2-0.2c0,0,0-0.1,0-0.1v-0.6h0.2V40.6z"/>
	<path class="st2" d="M55.1,39.6v0.3h0.3V40h-0.3v0.5c0,0.1,0,0.2,0.1,0.2c0,0,0.1,0,0.1,0l0,0.1c0,0-0.1,0-0.2,0
		c-0.1,0-0.2,0-0.2-0.1C55,40.8,55,40.7,55,40.6V40h-0.2v-0.1H55v-0.2L55.1,39.6z"/>
	<path class="st2" d="M55.5,41.2c0-0.1,0.1-0.3,0.1-0.5l0.2,0c0,0.2-0.1,0.4-0.2,0.5L55.5,41.2z"/>
	<path class="st2" d="M24.5,42.1c0,0.1,0,0.1-0.1,0.1c-0.1,0-0.1,0-0.1-0.1c0-0.1,0-0.1,0.1-0.1C24.4,42,24.5,42,24.5,42.1z
		 M24.3,43.4v-1h0.2v1H24.3z"/>
	<path class="st2" d="M24.8,42.7c0-0.1,0-0.2,0-0.3h0.2l0,0.2h0c0.1-0.1,0.1-0.2,0.3-0.2c0.1,0,0.2,0.1,0.3,0.2h0
		c0-0.1,0.1-0.1,0.1-0.1c0.1,0,0.1-0.1,0.2-0.1c0.1,0,0.3,0.1,0.3,0.4v0.6H26v-0.6c0-0.2-0.1-0.3-0.2-0.3c-0.1,0-0.2,0.1-0.2,0.2
		c0,0,0,0.1,0,0.1v0.6h-0.2v-0.6c0-0.2-0.1-0.3-0.2-0.3c-0.1,0-0.2,0.1-0.2,0.2c0,0,0,0.1,0,0.1v0.6h-0.2V42.7z"/>
	<path class="st2" d="M26.5,42.7c0-0.1,0-0.2,0-0.3h0.2l0,0.2h0c0.1-0.1,0.2-0.2,0.4-0.2c0.2,0,0.4,0.2,0.4,0.5
		c0,0.4-0.2,0.5-0.5,0.5c-0.1,0-0.2-0.1-0.3-0.2h0v0.5h-0.2V42.7z M26.7,43C26.7,43,26.7,43,26.7,43c0,0.2,0.2,0.3,0.3,0.3
		c0.2,0,0.3-0.2,0.3-0.4c0-0.2-0.1-0.4-0.3-0.4c-0.1,0-0.2,0.1-0.3,0.2c0,0,0,0.1,0,0.1V43z"/>
	<path class="st2" d="M27.8,42.9c0,0.2,0.2,0.3,0.3,0.3c0.1,0,0.2,0,0.3-0.1l0,0.1c-0.1,0-0.2,0.1-0.3,0.1c-0.3,0-0.5-0.2-0.5-0.5
		c0-0.3,0.2-0.5,0.5-0.5c0.3,0,0.4,0.3,0.4,0.5c0,0,0,0.1,0,0.1H27.8z M28.3,42.8c0-0.1,0-0.3-0.3-0.3c-0.2,0-0.3,0.2-0.3,0.3H28.3z
		"/>
	<path class="st2" d="M28.7,42.7c0-0.1,0-0.2,0-0.3h0.2l0,0.2h0c0-0.1,0.2-0.2,0.3-0.2c0,0,0,0,0.1,0v0.2c0,0,0,0-0.1,0
		c-0.1,0-0.2,0.1-0.2,0.2c0,0,0,0.1,0,0.1v0.5h-0.2V42.7z"/>
	<path class="st2" d="M30.2,41.9v1.2c0,0.1,0,0.2,0,0.3h-0.2l0-0.2h0c-0.1,0.1-0.2,0.2-0.3,0.2c-0.2,0-0.4-0.2-0.4-0.5
		c0-0.3,0.2-0.5,0.5-0.5c0.2,0,0.3,0.1,0.3,0.2h0v-0.6H30.2z M30,42.8C30,42.8,30,42.7,30,42.8c0-0.2-0.1-0.3-0.3-0.3
		c-0.2,0-0.3,0.2-0.3,0.4c0,0.2,0.1,0.4,0.3,0.4c0.1,0,0.2-0.1,0.3-0.2c0,0,0,0,0-0.1V42.8z"/>
	<path class="st2" d="M30.7,42.1c0,0.1,0,0.1-0.1,0.1c-0.1,0-0.1,0-0.1-0.1c0-0.1,0-0.1,0.1-0.1C30.7,42,30.7,42,30.7,42.1z
		 M30.5,43.4v-1h0.2v1H30.5z"/>
	<path class="st2" d="M31.1,42.9c0,0.2,0.2,0.3,0.3,0.3c0.1,0,0.2,0,0.3-0.1l0,0.1c-0.1,0-0.2,0.1-0.3,0.1c-0.3,0-0.5-0.2-0.5-0.5
		c0-0.3,0.2-0.5,0.5-0.5c0.3,0,0.4,0.3,0.4,0.5c0,0,0,0.1,0,0.1H31.1z M31.7,42.8c0-0.1,0-0.3-0.3-0.3c-0.2,0-0.3,0.2-0.3,0.3H31.7z
		"/>
	<path class="st2" d="M32.3,42.1v0.3h0.3v0.1h-0.3v0.5c0,0.1,0,0.2,0.1,0.2c0,0,0.1,0,0.1,0l0,0.1c0,0-0.1,0-0.2,0
		c-0.1,0-0.2,0-0.2-0.1c-0.1-0.1-0.1-0.1-0.1-0.3v-0.5h-0.2v-0.1h0.2v-0.2L32.3,42.1z"/>
	<path class="st2" d="M33.2,42.4l0.2,0.6c0,0.1,0.1,0.2,0.1,0.3h0c0-0.1,0.1-0.2,0.1-0.3l0.2-0.6H34l-0.4,1h-0.2l-0.4-1H33.2z"/>
	<path class="st2" d="M34.3,42.9c0,0.2,0.2,0.3,0.3,0.3c0.1,0,0.2,0,0.3-0.1l0,0.1c-0.1,0-0.2,0.1-0.3,0.1c-0.3,0-0.5-0.2-0.5-0.5
		c0-0.3,0.2-0.5,0.5-0.5c0.3,0,0.4,0.3,0.4,0.5c0,0,0,0.1,0,0.1H34.3z M34.8,42.8c0-0.1,0-0.3-0.3-0.3c-0.2,0-0.3,0.2-0.3,0.3H34.8z
		"/>
	<path class="st2" d="M35.2,43.2c0.1,0,0.1,0.1,0.2,0.1c0.1,0,0.2-0.1,0.2-0.1c0-0.1-0.1-0.1-0.2-0.2c-0.2-0.1-0.3-0.2-0.3-0.3
		c0-0.2,0.1-0.3,0.3-0.3c0.1,0,0.2,0,0.2,0.1l0,0.1c0,0-0.1-0.1-0.2-0.1c-0.1,0-0.2,0.1-0.2,0.1c0,0.1,0.1,0.1,0.2,0.2
		c0.2,0.1,0.3,0.2,0.3,0.3c0,0.2-0.1,0.3-0.4,0.3c-0.1,0-0.2,0-0.3-0.1L35.2,43.2z"/>
	<path class="st2" d="M36.2,42.1v0.3h0.3v0.1h-0.3v0.5c0,0.1,0,0.2,0.1,0.2c0,0,0.1,0,0.1,0l0,0.1c0,0-0.1,0-0.2,0
		c-0.1,0-0.2,0-0.2-0.1c-0.1-0.1-0.1-0.1-0.1-0.3v-0.5h-0.2v-0.1H36v-0.2L36.2,42.1z"/>
	<path class="st2" d="M36.9,42.1c0,0.1,0,0.1-0.1,0.1c-0.1,0-0.1,0-0.1-0.1c0-0.1,0-0.1,0.1-0.1C36.9,42,36.9,42,36.9,42.1z
		 M36.7,43.4v-1h0.2v1H36.7z"/>
	<path class="st2" d="M37.2,43.4c0-0.1,0-0.2,0-0.3v-1.2h0.2v0.6h0c0.1-0.1,0.2-0.2,0.3-0.2c0.2,0,0.4,0.2,0.4,0.5
		c0,0.4-0.2,0.5-0.5,0.5c-0.1,0-0.3-0.1-0.3-0.2h0l0,0.2H37.2z M37.4,43C37.4,43,37.4,43,37.4,43c0,0.2,0.1,0.3,0.3,0.3
		c0.2,0,0.3-0.2,0.3-0.4c0-0.2-0.1-0.4-0.3-0.4c-0.1,0-0.2,0.1-0.3,0.2c0,0,0,0,0,0.1V43z"/>
	<path class="st2" d="M39.2,43.1c0,0.1,0,0.2,0,0.3H39l0-0.2h0c0,0.1-0.2,0.2-0.3,0.2c-0.2,0-0.3-0.1-0.3-0.4v-0.6h0.2v0.6
		c0,0.2,0.1,0.3,0.2,0.3c0.1,0,0.2-0.1,0.2-0.2c0,0,0-0.1,0-0.1v-0.6h0.2V43.1z"/>
	<path class="st2" d="M39.5,41.9h0.2v1.5h-0.2V41.9z"/>
	<path class="st2" d="M40.8,43.1c0,0.1,0,0.2,0,0.3h-0.2l0-0.2h0c0,0.1-0.2,0.2-0.3,0.2c-0.2,0-0.3-0.1-0.3-0.4v-0.6h0.2v0.6
		c0,0.2,0.1,0.3,0.2,0.3c0.1,0,0.2-0.1,0.2-0.2c0,0,0-0.1,0-0.1v-0.6h0.2V43.1z"/>
	<path class="st2" d="M41.1,42.7c0-0.1,0-0.2,0-0.3h0.2l0,0.2h0c0.1-0.1,0.1-0.2,0.3-0.2c0.1,0,0.2,0.1,0.3,0.2h0
		c0-0.1,0.1-0.1,0.1-0.1c0.1,0,0.1-0.1,0.2-0.1c0.1,0,0.3,0.1,0.3,0.4v0.6h-0.2v-0.6c0-0.2-0.1-0.3-0.2-0.3c-0.1,0-0.2,0.1-0.2,0.2
		c0,0,0,0.1,0,0.1v0.6h-0.2v-0.6c0-0.2-0.1-0.3-0.2-0.3c-0.1,0-0.2,0.1-0.2,0.2c0,0,0,0.1,0,0.1v0.6h-0.2V42.7z"/>
	<path class="st2" d="M44,43.2L44,43.2c-0.1,0.1-0.2,0.2-0.3,0.2c-0.2,0-0.4-0.2-0.4-0.5c0-0.4,0.2-0.5,0.5-0.5
		c0.2,0,0.3,0.1,0.3,0.2h0l0-0.2h0.2c0,0.1,0,0.2,0,0.3v1.1H44V43.2z M44,42.8C44,42.8,44,42.7,44,42.8c0-0.2-0.1-0.3-0.3-0.3
		c-0.2,0-0.3,0.2-0.3,0.4c0,0.2,0.1,0.4,0.3,0.4c0.1,0,0.2-0.1,0.3-0.2c0,0,0-0.1,0-0.1V42.8z"/>
	<path class="st2" d="M45.3,43.1c0,0.1,0,0.2,0,0.3h-0.2l0-0.2h0c0,0.1-0.2,0.2-0.3,0.2c-0.2,0-0.3-0.1-0.3-0.4v-0.6h0.2v0.6
		c0,0.2,0.1,0.3,0.2,0.3c0.1,0,0.2-0.1,0.2-0.2c0,0,0-0.1,0-0.1v-0.6h0.2V43.1z"/>
	<path class="st2" d="M46.2,43.4l0-0.1h0c-0.1,0.1-0.2,0.1-0.3,0.1c-0.2,0-0.3-0.1-0.3-0.3c0-0.2,0.2-0.4,0.6-0.4v0
		c0-0.1,0-0.2-0.2-0.2c-0.1,0-0.2,0-0.3,0.1l0-0.1c0.1-0.1,0.2-0.1,0.3-0.1c0.3,0,0.4,0.2,0.4,0.4v0.4c0,0.1,0,0.2,0,0.2H46.2z
		 M46.1,42.9c-0.2,0-0.4,0-0.4,0.2c0,0.1,0.1,0.2,0.2,0.2c0.1,0,0.2-0.1,0.2-0.2c0,0,0,0,0-0.1V42.9z"/>
	<path class="st2" d="M46.6,42.7c0-0.1,0-0.2,0-0.3h0.2l0,0.2h0c0.1-0.1,0.1-0.2,0.3-0.2c0.1,0,0.2,0.1,0.3,0.2h0
		c0-0.1,0.1-0.1,0.1-0.1c0.1,0,0.1-0.1,0.2-0.1c0.1,0,0.3,0.1,0.3,0.4v0.6h-0.2v-0.6c0-0.2-0.1-0.3-0.2-0.3c-0.1,0-0.2,0.1-0.2,0.2
		c0,0,0,0.1,0,0.1v0.6h-0.2v-0.6c0-0.2-0.1-0.3-0.2-0.3c-0.1,0-0.2,0.1-0.2,0.2c0,0,0,0.1,0,0.1v0.6h-0.2V42.7z"/>
	<path class="st2" d="M48.3,43.3c0-0.1,0.1-0.1,0.1-0.1s0.1,0.1,0.1,0.1c0,0.1,0,0.1-0.1,0.1C48.3,43.4,48.3,43.4,48.3,43.3z"/>
	<path class="st2" d="M25.3,45.8c-0.1,0-0.2,0.1-0.4,0.1c-0.4,0-0.7-0.2-0.7-0.7c0-0.4,0.3-0.7,0.7-0.7c0.2,0,0.3,0,0.3,0.1l0,0.1
		c-0.1,0-0.2-0.1-0.3-0.1c-0.3,0-0.5,0.2-0.5,0.6c0,0.3,0.2,0.6,0.5,0.6c0.1,0,0.2,0,0.3-0.1L25.3,45.8z"/>
	<path class="st2" d="M26.3,45.6c0,0.1,0,0.2,0,0.3h-0.2l0-0.2h0c0,0.1-0.2,0.2-0.3,0.2c-0.2,0-0.3-0.1-0.3-0.4v-0.6h0.2v0.6
		c0,0.2,0.1,0.3,0.2,0.3c0.1,0,0.2-0.1,0.2-0.2c0,0,0-0.1,0-0.1v-0.6h0.2V45.6z"/>
	<path class="st2" d="M26.6,45.2c0-0.1,0-0.2,0-0.3h0.2l0,0.2h0c0-0.1,0.2-0.2,0.3-0.2c0,0,0,0,0.1,0V45c0,0,0,0-0.1,0
		c-0.1,0-0.2,0.1-0.2,0.2c0,0,0,0.1,0,0.1v0.5h-0.2V45.2z"/>
	<path class="st2" d="M27.8,45.9l0-0.1h0c-0.1,0.1-0.2,0.1-0.3,0.1c-0.2,0-0.3-0.1-0.3-0.3c0-0.2,0.2-0.4,0.6-0.4v0
		c0-0.1,0-0.2-0.2-0.2c-0.1,0-0.2,0-0.3,0.1l0-0.1c0.1-0.1,0.2-0.1,0.3-0.1c0.3,0,0.4,0.2,0.4,0.4v0.4c0,0.1,0,0.2,0,0.2H27.8z
		 M27.8,45.4c-0.2,0-0.4,0-0.4,0.2c0,0.1,0.1,0.2,0.2,0.2c0.1,0,0.2-0.1,0.2-0.2c0,0,0,0,0-0.1V45.4z"/>
	<path class="st2" d="M28.3,45.9c0-0.1,0-0.2,0-0.3v-1.2h0.2V45h0c0.1-0.1,0.2-0.2,0.3-0.2c0.2,0,0.4,0.2,0.4,0.5
		c0,0.4-0.2,0.5-0.5,0.5c-0.1,0-0.3-0.1-0.3-0.2h0l0,0.2H28.3z M28.4,45.5C28.4,45.5,28.4,45.5,28.4,45.5c0,0.2,0.1,0.3,0.3,0.3
		c0.2,0,0.3-0.2,0.3-0.4c0-0.2-0.1-0.4-0.3-0.4c-0.1,0-0.2,0.1-0.3,0.2c0,0,0,0,0,0.1V45.5z"/>
	<path class="st2" d="M29.6,44.6c0,0.1,0,0.1-0.1,0.1c-0.1,0-0.1,0-0.1-0.1c0-0.1,0-0.1,0.1-0.1C29.6,44.5,29.6,44.5,29.6,44.6z
		 M29.4,45.9v-1h0.2v1H29.4z"/>
	<path class="st2" d="M30.1,44.6v0.3h0.3V45h-0.3v0.5c0,0.1,0,0.2,0.1,0.2c0,0,0.1,0,0.1,0l0,0.1c0,0-0.1,0-0.2,0
		c-0.1,0-0.2,0-0.2-0.1C30,45.8,30,45.7,30,45.6V45h-0.2v-0.1H30v-0.2L30.1,44.6z"/>
	<path class="st2" d="M31.4,45.6c0,0.1,0,0.2,0,0.3h-0.2l0-0.2h0c0,0.1-0.2,0.2-0.3,0.2c-0.2,0-0.3-0.1-0.3-0.4v-0.6h0.2v0.6
		c0,0.2,0.1,0.3,0.2,0.3c0.1,0,0.2-0.1,0.2-0.2c0,0,0-0.1,0-0.1v-0.6h0.2V45.6z"/>
	<path class="st2" d="M31.7,45.2c0-0.1,0-0.2,0-0.3h0.2l0,0.2h0c0-0.1,0.2-0.2,0.3-0.2c0,0,0,0,0.1,0V45c0,0,0,0-0.1,0
		c-0.1,0-0.2,0.1-0.2,0.2c0,0,0,0.1,0,0.1v0.5h-0.2V45.2z"/>
	<path class="st2" d="M33.1,44.6c0,0.1,0,0.1-0.1,0.1c-0.1,0-0.1,0-0.1-0.1c0-0.1,0-0.1,0.1-0.1C33,44.5,33.1,44.5,33.1,44.6z
		 M32.9,45.9v-1H33v1H32.9z"/>
	<path class="st2" d="M33.3,45.1c0-0.1,0-0.2,0-0.3h0.2l0,0.2h0c0-0.1,0.2-0.2,0.3-0.2c0.1,0,0.4,0.1,0.4,0.4v0.6H34v-0.6
		c0-0.2-0.1-0.3-0.2-0.3c-0.1,0-0.2,0.1-0.2,0.2c0,0,0,0.1,0,0.1v0.6h-0.2V45.1z"/>
	<path class="st2" d="M34.7,44.6v0.3H35V45h-0.3v0.5c0,0.1,0,0.2,0.1,0.2c0,0,0.1,0,0.1,0l0,0.1c0,0-0.1,0-0.2,0
		c-0.1,0-0.2,0-0.2-0.1c-0.1-0.1-0.1-0.1-0.1-0.3V45h-0.2v-0.1h0.2v-0.2L34.7,44.6z"/>
	<path class="st2" d="M35.3,45.4c0,0.2,0.2,0.3,0.3,0.3c0.1,0,0.2,0,0.3-0.1l0,0.1c-0.1,0-0.2,0.1-0.3,0.1c-0.3,0-0.5-0.2-0.5-0.5
		s0.2-0.5,0.5-0.5c0.3,0,0.4,0.3,0.4,0.5c0,0,0,0.1,0,0.1H35.3z M35.8,45.3c0-0.1,0-0.3-0.3-0.3c-0.2,0-0.3,0.2-0.3,0.3H35.8z"/>
	<path class="st2" d="M36.2,45.2c0-0.1,0-0.2,0-0.3h0.2l0,0.2h0c0-0.1,0.2-0.2,0.3-0.2c0,0,0,0,0.1,0V45c0,0,0,0-0.1,0
		c-0.1,0-0.2,0.1-0.2,0.2c0,0,0,0.1,0,0.1v0.5h-0.2V45.2z"/>
	<path class="st2" d="M37.7,44.4v1.2c0,0.1,0,0.2,0,0.3h-0.2l0-0.2h0c-0.1,0.1-0.2,0.2-0.3,0.2c-0.2,0-0.4-0.2-0.4-0.5
		c0-0.3,0.2-0.5,0.5-0.5c0.2,0,0.3,0.1,0.3,0.2h0v-0.6H37.7z M37.5,45.3C37.5,45.3,37.5,45.2,37.5,45.3c0-0.2-0.1-0.3-0.3-0.3
		c-0.2,0-0.3,0.2-0.3,0.4c0,0.2,0.1,0.4,0.3,0.4c0.1,0,0.2-0.1,0.3-0.2c0,0,0,0,0-0.1V45.3z"/>
	<path class="st2" d="M38.9,45.6c0,0.1,0,0.2,0,0.3h-0.2l0-0.2h0c0,0.1-0.2,0.2-0.3,0.2c-0.2,0-0.3-0.1-0.3-0.4v-0.6h0.2v0.6
		c0,0.2,0.1,0.3,0.2,0.3c0.1,0,0.2-0.1,0.2-0.2c0,0,0-0.1,0-0.1v-0.6h0.2V45.6z"/>
	<path class="st2" d="M39.2,45.1c0-0.1,0-0.2,0-0.3h0.2l0,0.2h0c0.1-0.1,0.1-0.2,0.3-0.2c0.1,0,0.2,0.1,0.3,0.2h0
		c0-0.1,0.1-0.1,0.1-0.1c0.1,0,0.1-0.1,0.2-0.1c0.1,0,0.3,0.1,0.3,0.4v0.6h-0.2v-0.6c0-0.2-0.1-0.3-0.2-0.3c-0.1,0-0.2,0.1-0.2,0.2
		c0,0,0,0.1,0,0.1v0.6h-0.2v-0.6c0-0.2-0.1-0.3-0.2-0.3c-0.1,0-0.2,0.1-0.2,0.2c0,0,0,0.1,0,0.1v0.6h-0.2V45.1z"/>
	<path class="st2" d="M40.8,46.1c0-0.1,0.1-0.3,0.1-0.5l0.2,0c0,0.2-0.1,0.4-0.2,0.5L40.8,46.1z"/>
	<path class="st2" d="M41.9,45.4c0,0.2,0.2,0.3,0.3,0.3c0.1,0,0.2,0,0.3-0.1l0,0.1c-0.1,0-0.2,0.1-0.3,0.1c-0.3,0-0.5-0.2-0.5-0.5
		s0.2-0.5,0.5-0.5c0.3,0,0.4,0.3,0.4,0.5c0,0,0,0.1,0,0.1H41.9z M42.4,45.3c0-0.1,0-0.3-0.3-0.3c-0.2,0-0.3,0.2-0.3,0.3H42.4z"/>
	<path class="st2" d="M42.8,44.4H43v1.5h-0.2V44.4z"/>
	<path class="st2" d="M43.5,44.6c0,0.1,0,0.1-0.1,0.1c-0.1,0-0.1,0-0.1-0.1c0-0.1,0-0.1,0.1-0.1C43.4,44.5,43.5,44.5,43.5,44.6z
		 M43.3,45.9v-1h0.2v1H43.3z"/>
	<path class="st2" d="M44,44.6v0.3h0.3V45H44v0.5c0,0.1,0,0.2,0.1,0.2c0,0,0.1,0,0.1,0l0,0.1c0,0-0.1,0-0.2,0c-0.1,0-0.2,0-0.2-0.1
		c-0.1-0.1-0.1-0.1-0.1-0.3V45h-0.2v-0.1h0.2v-0.2L44,44.6z"/>
	<path class="st2" d="M45,44.9l0.2,0.6c0,0.1,0.1,0.2,0.1,0.3h0c0-0.1,0.1-0.2,0.1-0.3l0.2-0.6h0.2l-0.4,1h-0.2l-0.4-1H45z"/>
	<path class="st2" d="M46,45.4c0,0.2,0.2,0.3,0.3,0.3c0.1,0,0.2,0,0.3-0.1l0,0.1c-0.1,0-0.2,0.1-0.3,0.1c-0.3,0-0.5-0.2-0.5-0.5
		s0.2-0.5,0.5-0.5c0.3,0,0.4,0.3,0.4,0.5c0,0,0,0.1,0,0.1H46z M46.5,45.3c0-0.1,0-0.3-0.3-0.3c-0.2,0-0.3,0.2-0.3,0.3H46.5z"/>
	<path class="st2" d="M46.9,44.4h0.2v1.5h-0.2V44.4z"/>
	<path class="st2" d="M48,44.6c0,0.1,0,0.1-0.1,0.1c-0.1,0-0.1,0-0.1-0.1c0-0.1,0-0.1,0.1-0.1C48,44.5,48,44.5,48,44.6z M47.8,45.9
		v-1H48v1H47.8z"/>
	<path class="st2" d="M48.9,45.9l0-0.1h0c-0.1,0.1-0.2,0.1-0.3,0.1c-0.2,0-0.3-0.1-0.3-0.3c0-0.2,0.2-0.4,0.6-0.4v0
		c0-0.1,0-0.2-0.2-0.2c-0.1,0-0.2,0-0.3,0.1l0-0.1c0.1-0.1,0.2-0.1,0.3-0.1c0.3,0,0.4,0.2,0.4,0.4v0.4c0,0.1,0,0.2,0,0.2H48.9z
		 M48.8,45.4c-0.2,0-0.4,0-0.4,0.2c0,0.1,0.1,0.2,0.2,0.2c0.1,0,0.2-0.1,0.2-0.2c0,0,0,0,0-0.1V45.4z"/>
	<path class="st2" d="M50,45.8c0,0-0.2,0.1-0.3,0.1c-0.3,0-0.5-0.2-0.5-0.5c0-0.3,0.2-0.5,0.5-0.5c0.1,0,0.2,0,0.3,0.1l0,0.1
		c0,0-0.1,0-0.2,0c-0.2,0-0.4,0.2-0.4,0.4c0,0.2,0.1,0.4,0.3,0.4c0.1,0,0.2,0,0.2-0.1L50,45.8z"/>
	<path class="st2" d="M51.1,45.6c0,0.1,0,0.2,0,0.3h-0.2l0-0.2h0c0,0.1-0.2,0.2-0.3,0.2c-0.2,0-0.3-0.1-0.3-0.4v-0.6h0.2v0.6
		c0,0.2,0.1,0.3,0.2,0.3c0.1,0,0.2-0.1,0.2-0.2c0,0,0-0.1,0-0.1v-0.6h0.2V45.6z"/>
	<path class="st2" d="M51.4,44.4h0.2v1.5h-0.2V44.4z"/>
	<path class="st2" d="M52.1,44.6c0,0.1,0,0.1-0.1,0.1c-0.1,0-0.1,0-0.1-0.1c0-0.1,0-0.1,0.1-0.1C52,44.5,52.1,44.5,52.1,44.6z
		 M51.9,45.9v-1H52v1H51.9z"/>
	<path class="st2" d="M52.3,45.7c0.1,0,0.1,0.1,0.2,0.1c0.1,0,0.2-0.1,0.2-0.1c0-0.1-0.1-0.1-0.2-0.2c-0.2-0.1-0.3-0.2-0.3-0.3
		c0-0.2,0.1-0.3,0.3-0.3c0.1,0,0.2,0,0.2,0.1l0,0.1c0,0-0.1-0.1-0.2-0.1c-0.1,0-0.2,0.1-0.2,0.1c0,0.1,0.1,0.1,0.2,0.2
		c0.2,0.1,0.3,0.2,0.3,0.3c0,0.2-0.1,0.3-0.4,0.3c-0.1,0-0.2,0-0.3-0.1L52.3,45.7z"/>
</g>
</svg>
